<svg xmlns="http://www.w3.org/2000/svg" version="1.1" xmlns:xlink="http://www.w3.org/1999/xlink" xmlns:svgjs="http://svgjs.dev/svgjs" width="1440" height="560" preserveAspectRatio="none" viewBox="0 0 1440 560"><g mask="url(&quot;#SvgjsMask1025&quot;)" fill="none"><rect width="1440" height="560" x="0" y="0" fill="rgba(23, 24, 24, 1)"></rect><path d="M73.79 74.59L124.02 103.59L124.02 161.59L73.79 190.59L23.56 161.59L23.56 103.59zM73.79 248.59L124.02 277.59L124.02 335.59L73.79 364.59L23.56 335.59L23.56 277.59zM23.56 509.59L73.79 538.59L73.79 596.59L23.56 625.59L-26.67 596.59L-26.67 538.59zM174.25 74.59L224.48 103.59L224.48 161.59L174.25 190.59L124.02 161.59L124.02 103.59zM124.02 161.59L174.25 190.59L174.25 248.59L124.02 277.59L73.79 248.59L73.79 190.59zM174.25 248.59L224.48 277.59L224.48 335.59L174.25 364.59L124.02 335.59L124.02 277.59zM124.02 335.59L174.25 364.59L174.25 422.59L124.02 451.59L73.79 422.59L73.79 364.59zM274.71 422.59L324.95 451.59L324.95 509.59L274.71 538.59L224.48 509.59L224.48 451.59zM224.48 509.59L274.71 538.59L274.71 596.59L224.48 625.59L174.25 596.59L174.25 538.59zM375.18 248.59L425.41 277.59L425.41 335.59L375.18 364.59L324.95 335.59L324.95 277.59zM324.95 335.59L375.18 364.59L375.18 422.59L324.95 451.59L274.71 422.59L274.71 364.59zM375.18 422.59L425.41 451.59L425.41 509.59L375.18 538.59L324.95 509.59L324.95 451.59zM475.64 74.59L525.87 103.59L525.87 161.59L475.64 190.59L425.41 161.59L425.41 103.59zM425.41 509.59L475.64 538.59L475.64 596.59L425.41 625.59L375.18 596.59L375.18 538.59zM525.87 509.59L576.1 538.59L576.1 596.59L525.87 625.59L475.64 596.59L475.64 538.59zM626.33 161.59L676.56 190.59L676.56 248.59L626.33 277.59L576.1 248.59L576.1 190.59zM626.33 509.59L676.56 538.59L676.56 596.59L626.33 625.59L576.1 596.59L576.1 538.59zM877.49 74.59L927.72 103.59L927.72 161.59L877.49 190.59L827.25 161.59L827.25 103.59zM827.25 161.59L877.49 190.59L877.49 248.59L827.25 277.59L777.02 248.59L777.02 190.59zM877.49 248.59L927.72 277.59L927.72 335.59L877.49 364.59L827.25 335.59L827.25 277.59zM827.25 335.59L877.49 364.59L877.49 422.59L827.25 451.59L777.02 422.59L777.02 364.59zM927.72 -12.41L977.95 16.59L977.95 74.59L927.72 103.59L877.49 74.59L877.49 16.59zM977.95 422.59L1028.18 451.59L1028.18 509.59L977.95 538.59L927.72 509.59L927.72 451.59zM1128.64 -12.41L1178.87 16.59L1178.87 74.59L1128.64 103.59L1078.41 74.59L1078.41 16.59zM1178.87 74.59L1229.1 103.59L1229.1 161.59L1178.87 190.59L1128.64 161.59L1128.64 103.59zM1480.26 422.59L1530.49 451.59L1530.49 509.59L1480.26 538.59L1430.03 509.59L1430.03 451.59z" stroke="rgba(19, 19, 20, 0.6)" stroke-width="2"></path><path d="M67.99 74.59 a5.8 5.8 0 1 0 11.6 0 a5.8 5.8 0 1 0 -11.6 0zM118.22 103.59 a5.8 5.8 0 1 0 11.6 0 a5.8 5.8 0 1 0 -11.6 0zM118.22 161.59 a5.8 5.8 0 1 0 11.6 0 a5.8 5.8 0 1 0 -11.6 0zM67.99 190.59 a5.8 5.8 0 1 0 11.6 0 a5.8 5.8 0 1 0 -11.6 0zM17.76 161.59 a5.8 5.8 0 1 0 11.6 0 a5.8 5.8 0 1 0 -11.6 0zM17.76 103.59 a5.8 5.8 0 1 0 11.6 0 a5.8 5.8 0 1 0 -11.6 0zM67.99 248.59 a5.8 5.8 0 1 0 11.6 0 a5.8 5.8 0 1 0 -11.6 0zM118.22 277.59 a5.8 5.8 0 1 0 11.6 0 a5.8 5.8 0 1 0 -11.6 0zM118.22 335.59 a5.8 5.8 0 1 0 11.6 0 a5.8 5.8 0 1 0 -11.6 0zM67.99 364.59 a5.8 5.8 0 1 0 11.6 0 a5.8 5.8 0 1 0 -11.6 0zM17.76 335.59 a5.8 5.8 0 1 0 11.6 0 a5.8 5.8 0 1 0 -11.6 0zM17.76 277.59 a5.8 5.8 0 1 0 11.6 0 a5.8 5.8 0 1 0 -11.6 0zM17.76 509.59 a5.8 5.8 0 1 0 11.6 0 a5.8 5.8 0 1 0 -11.6 0zM67.99 538.59 a5.8 5.8 0 1 0 11.6 0 a5.8 5.8 0 1 0 -11.6 0zM67.99 596.59 a5.8 5.8 0 1 0 11.6 0 a5.8 5.8 0 1 0 -11.6 0zM17.76 625.59 a5.8 5.8 0 1 0 11.6 0 a5.8 5.8 0 1 0 -11.6 0zM-32.47 596.59 a5.8 5.8 0 1 0 11.6 0 a5.8 5.8 0 1 0 -11.6 0zM-32.47 538.59 a5.8 5.8 0 1 0 11.6 0 a5.8 5.8 0 1 0 -11.6 0zM168.45 74.59 a5.8 5.8 0 1 0 11.6 0 a5.8 5.8 0 1 0 -11.6 0zM218.68 103.59 a5.8 5.8 0 1 0 11.6 0 a5.8 5.8 0 1 0 -11.6 0zM218.68 161.59 a5.8 5.8 0 1 0 11.6 0 a5.8 5.8 0 1 0 -11.6 0zM168.45 190.59 a5.8 5.8 0 1 0 11.6 0 a5.8 5.8 0 1 0 -11.6 0zM168.45 248.59 a5.8 5.8 0 1 0 11.6 0 a5.8 5.8 0 1 0 -11.6 0zM218.68 277.59 a5.8 5.8 0 1 0 11.6 0 a5.8 5.8 0 1 0 -11.6 0zM218.68 335.59 a5.8 5.8 0 1 0 11.6 0 a5.8 5.8 0 1 0 -11.6 0zM168.45 364.59 a5.8 5.8 0 1 0 11.6 0 a5.8 5.8 0 1 0 -11.6 0zM168.45 422.59 a5.8 5.8 0 1 0 11.6 0 a5.8 5.8 0 1 0 -11.6 0zM118.22 451.59 a5.8 5.8 0 1 0 11.6 0 a5.8 5.8 0 1 0 -11.6 0zM67.99 422.59 a5.8 5.8 0 1 0 11.6 0 a5.8 5.8 0 1 0 -11.6 0zM268.91 422.59 a5.8 5.8 0 1 0 11.6 0 a5.8 5.8 0 1 0 -11.6 0zM319.15 451.59 a5.8 5.8 0 1 0 11.6 0 a5.8 5.8 0 1 0 -11.6 0zM319.15 509.59 a5.8 5.8 0 1 0 11.6 0 a5.8 5.8 0 1 0 -11.6 0zM268.91 538.59 a5.8 5.8 0 1 0 11.6 0 a5.8 5.8 0 1 0 -11.6 0zM218.68 509.59 a5.8 5.8 0 1 0 11.6 0 a5.8 5.8 0 1 0 -11.6 0zM218.68 451.59 a5.8 5.8 0 1 0 11.6 0 a5.8 5.8 0 1 0 -11.6 0zM268.91 596.59 a5.8 5.8 0 1 0 11.6 0 a5.8 5.8 0 1 0 -11.6 0zM218.68 625.59 a5.8 5.8 0 1 0 11.6 0 a5.8 5.8 0 1 0 -11.6 0zM168.45 596.59 a5.8 5.8 0 1 0 11.6 0 a5.8 5.8 0 1 0 -11.6 0zM168.45 538.59 a5.8 5.8 0 1 0 11.6 0 a5.8 5.8 0 1 0 -11.6 0zM369.38 248.59 a5.8 5.8 0 1 0 11.6 0 a5.8 5.8 0 1 0 -11.6 0zM419.61 277.59 a5.8 5.8 0 1 0 11.6 0 a5.8 5.8 0 1 0 -11.6 0zM419.61 335.59 a5.8 5.8 0 1 0 11.6 0 a5.8 5.8 0 1 0 -11.6 0zM369.38 364.59 a5.8 5.8 0 1 0 11.6 0 a5.8 5.8 0 1 0 -11.6 0zM319.15 335.59 a5.8 5.8 0 1 0 11.6 0 a5.8 5.8 0 1 0 -11.6 0zM319.15 277.59 a5.8 5.8 0 1 0 11.6 0 a5.8 5.8 0 1 0 -11.6 0zM369.38 422.59 a5.8 5.8 0 1 0 11.6 0 a5.8 5.8 0 1 0 -11.6 0zM268.91 364.59 a5.8 5.8 0 1 0 11.6 0 a5.8 5.8 0 1 0 -11.6 0zM419.61 451.59 a5.8 5.8 0 1 0 11.6 0 a5.8 5.8 0 1 0 -11.6 0zM419.61 509.59 a5.8 5.8 0 1 0 11.6 0 a5.8 5.8 0 1 0 -11.6 0zM369.38 538.59 a5.8 5.8 0 1 0 11.6 0 a5.8 5.8 0 1 0 -11.6 0zM469.84 74.59 a5.8 5.8 0 1 0 11.6 0 a5.8 5.8 0 1 0 -11.6 0zM520.07 103.59 a5.8 5.8 0 1 0 11.6 0 a5.8 5.8 0 1 0 -11.6 0zM520.07 161.59 a5.8 5.8 0 1 0 11.6 0 a5.8 5.8 0 1 0 -11.6 0zM469.84 190.59 a5.8 5.8 0 1 0 11.6 0 a5.8 5.8 0 1 0 -11.6 0zM419.61 161.59 a5.8 5.8 0 1 0 11.6 0 a5.8 5.8 0 1 0 -11.6 0zM419.61 103.59 a5.8 5.8 0 1 0 11.6 0 a5.8 5.8 0 1 0 -11.6 0zM469.84 538.59 a5.8 5.8 0 1 0 11.6 0 a5.8 5.8 0 1 0 -11.6 0zM469.84 596.59 a5.8 5.8 0 1 0 11.6 0 a5.8 5.8 0 1 0 -11.6 0zM419.61 625.59 a5.8 5.8 0 1 0 11.6 0 a5.8 5.8 0 1 0 -11.6 0zM369.38 596.59 a5.8 5.8 0 1 0 11.6 0 a5.8 5.8 0 1 0 -11.6 0zM520.07 509.59 a5.8 5.8 0 1 0 11.6 0 a5.8 5.8 0 1 0 -11.6 0zM570.3 538.59 a5.8 5.8 0 1 0 11.6 0 a5.8 5.8 0 1 0 -11.6 0zM570.3 596.59 a5.8 5.8 0 1 0 11.6 0 a5.8 5.8 0 1 0 -11.6 0zM520.07 625.59 a5.8 5.8 0 1 0 11.6 0 a5.8 5.8 0 1 0 -11.6 0zM620.53 161.59 a5.8 5.8 0 1 0 11.6 0 a5.8 5.8 0 1 0 -11.6 0zM670.76 190.59 a5.8 5.8 0 1 0 11.6 0 a5.8 5.8 0 1 0 -11.6 0zM670.76 248.59 a5.8 5.8 0 1 0 11.6 0 a5.8 5.8 0 1 0 -11.6 0zM620.53 277.59 a5.8 5.8 0 1 0 11.6 0 a5.8 5.8 0 1 0 -11.6 0zM570.3 248.59 a5.8 5.8 0 1 0 11.6 0 a5.8 5.8 0 1 0 -11.6 0zM570.3 190.59 a5.8 5.8 0 1 0 11.6 0 a5.8 5.8 0 1 0 -11.6 0zM620.53 509.59 a5.8 5.8 0 1 0 11.6 0 a5.8 5.8 0 1 0 -11.6 0zM670.76 538.59 a5.8 5.8 0 1 0 11.6 0 a5.8 5.8 0 1 0 -11.6 0zM670.76 596.59 a5.8 5.8 0 1 0 11.6 0 a5.8 5.8 0 1 0 -11.6 0zM620.53 625.59 a5.8 5.8 0 1 0 11.6 0 a5.8 5.8 0 1 0 -11.6 0zM871.69 74.59 a5.8 5.8 0 1 0 11.6 0 a5.8 5.8 0 1 0 -11.6 0zM921.92 103.59 a5.8 5.8 0 1 0 11.6 0 a5.8 5.8 0 1 0 -11.6 0zM921.92 161.59 a5.8 5.8 0 1 0 11.6 0 a5.8 5.8 0 1 0 -11.6 0zM871.69 190.59 a5.8 5.8 0 1 0 11.6 0 a5.8 5.8 0 1 0 -11.6 0zM821.45 161.59 a5.8 5.8 0 1 0 11.6 0 a5.8 5.8 0 1 0 -11.6 0zM821.45 103.59 a5.8 5.8 0 1 0 11.6 0 a5.8 5.8 0 1 0 -11.6 0zM871.69 248.59 a5.8 5.8 0 1 0 11.6 0 a5.8 5.8 0 1 0 -11.6 0zM821.45 277.59 a5.8 5.8 0 1 0 11.6 0 a5.8 5.8 0 1 0 -11.6 0zM771.22 248.59 a5.8 5.8 0 1 0 11.6 0 a5.8 5.8 0 1 0 -11.6 0zM771.22 190.59 a5.8 5.8 0 1 0 11.6 0 a5.8 5.8 0 1 0 -11.6 0zM921.92 277.59 a5.8 5.8 0 1 0 11.6 0 a5.8 5.8 0 1 0 -11.6 0zM921.92 335.59 a5.8 5.8 0 1 0 11.6 0 a5.8 5.8 0 1 0 -11.6 0zM871.69 364.59 a5.8 5.8 0 1 0 11.6 0 a5.8 5.8 0 1 0 -11.6 0zM821.45 335.59 a5.8 5.8 0 1 0 11.6 0 a5.8 5.8 0 1 0 -11.6 0zM871.69 422.59 a5.8 5.8 0 1 0 11.6 0 a5.8 5.8 0 1 0 -11.6 0zM821.45 451.59 a5.8 5.8 0 1 0 11.6 0 a5.8 5.8 0 1 0 -11.6 0zM771.22 422.59 a5.8 5.8 0 1 0 11.6 0 a5.8 5.8 0 1 0 -11.6 0zM771.22 364.59 a5.8 5.8 0 1 0 11.6 0 a5.8 5.8 0 1 0 -11.6 0zM921.92 -12.41 a5.8 5.8 0 1 0 11.6 0 a5.8 5.8 0 1 0 -11.6 0zM972.15 16.59 a5.8 5.8 0 1 0 11.6 0 a5.8 5.8 0 1 0 -11.6 0zM972.15 74.59 a5.8 5.8 0 1 0 11.6 0 a5.8 5.8 0 1 0 -11.6 0zM871.69 16.59 a5.8 5.8 0 1 0 11.6 0 a5.8 5.8 0 1 0 -11.6 0zM972.15 422.59 a5.8 5.8 0 1 0 11.6 0 a5.8 5.8 0 1 0 -11.6 0zM1022.38 451.59 a5.8 5.8 0 1 0 11.6 0 a5.8 5.8 0 1 0 -11.6 0zM1022.38 509.59 a5.8 5.8 0 1 0 11.6 0 a5.8 5.8 0 1 0 -11.6 0zM972.15 538.59 a5.8 5.8 0 1 0 11.6 0 a5.8 5.8 0 1 0 -11.6 0zM921.92 509.59 a5.8 5.8 0 1 0 11.6 0 a5.8 5.8 0 1 0 -11.6 0zM921.92 451.59 a5.8 5.8 0 1 0 11.6 0 a5.8 5.8 0 1 0 -11.6 0zM1122.84 -12.41 a5.8 5.8 0 1 0 11.6 0 a5.8 5.8 0 1 0 -11.6 0zM1173.07 16.59 a5.8 5.8 0 1 0 11.6 0 a5.8 5.8 0 1 0 -11.6 0zM1173.07 74.59 a5.8 5.8 0 1 0 11.6 0 a5.8 5.8 0 1 0 -11.6 0zM1122.84 103.59 a5.8 5.8 0 1 0 11.6 0 a5.8 5.8 0 1 0 -11.6 0zM1072.61 74.59 a5.8 5.8 0 1 0 11.6 0 a5.8 5.8 0 1 0 -11.6 0zM1072.61 16.59 a5.8 5.8 0 1 0 11.6 0 a5.8 5.8 0 1 0 -11.6 0zM1223.3 103.59 a5.8 5.8 0 1 0 11.6 0 a5.8 5.8 0 1 0 -11.6 0zM1223.3 161.59 a5.8 5.8 0 1 0 11.6 0 a5.8 5.8 0 1 0 -11.6 0zM1173.07 190.59 a5.8 5.8 0 1 0 11.6 0 a5.8 5.8 0 1 0 -11.6 0zM1122.84 161.59 a5.8 5.8 0 1 0 11.6 0 a5.8 5.8 0 1 0 -11.6 0zM1474.46 422.59 a5.8 5.8 0 1 0 11.6 0 a5.8 5.8 0 1 0 -11.6 0zM1524.69 451.59 a5.8 5.8 0 1 0 11.6 0 a5.8 5.8 0 1 0 -11.6 0zM1524.69 509.59 a5.8 5.8 0 1 0 11.6 0 a5.8 5.8 0 1 0 -11.6 0zM1474.46 538.59 a5.8 5.8 0 1 0 11.6 0 a5.8 5.8 0 1 0 -11.6 0zM1424.23 509.59 a5.8 5.8 0 1 0 11.6 0 a5.8 5.8 0 1 0 -11.6 0zM1424.23 451.59 a5.8 5.8 0 1 0 11.6 0 a5.8 5.8 0 1 0 -11.6 0z" fill="rgba(19, 19, 20, 0.6)"></path><path d="M30.69 131.68L69.66 154.18L69.66 199.18L30.69 221.68L-8.28 199.18L-8.28 154.18zM69.66 199.18L108.63 221.68L108.63 266.68L69.66 289.18L30.69 266.68L30.69 221.68zM30.69 266.68L69.66 289.18L69.66 334.18L30.69 356.68L-8.28 334.18L-8.28 289.18zM69.66 334.18L108.63 356.68L108.63 401.68L69.66 424.18L30.69 401.68L30.69 356.68zM30.69 401.68L69.66 424.18L69.66 469.18L30.69 491.68L-8.28 469.18L-8.28 424.18zM108.63 -3.32L147.61 19.18L147.61 64.18L108.63 86.68L69.66 64.18L69.66 19.18zM108.63 131.68L147.61 154.18L147.61 199.18L108.63 221.68L69.66 199.18L69.66 154.18zM108.63 401.68L147.61 424.18L147.61 469.18L108.63 491.68L69.66 469.18L69.66 424.18zM108.63 536.68L147.61 559.18L147.61 604.18L108.63 626.68L69.66 604.18L69.66 559.18zM186.58 131.68L225.55 154.18L225.55 199.18L186.58 221.68L147.61 199.18L147.61 154.18zM225.55 199.18L264.52 221.68L264.52 266.68L225.55 289.18L186.58 266.68L186.58 221.68zM264.52 -3.32L303.5 19.18L303.5 64.18L264.52 86.68L225.55 64.18L225.55 19.18zM303.5 64.18L342.47 86.68L342.47 131.68L303.5 154.18L264.52 131.68L264.52 86.68zM342.47 131.68L381.44 154.18L381.44 199.18L342.47 221.68L303.5 199.18L303.5 154.18zM381.44 199.18L420.41 221.68L420.41 266.68L381.44 289.18L342.47 266.68L342.47 221.68zM381.44 469.18L420.41 491.68L420.41 536.68L381.44 559.18L342.47 536.68L342.47 491.68zM420.41 -3.32L459.38 19.18L459.38 64.18L420.41 86.68L381.44 64.18L381.44 19.18zM420.41 266.68L459.38 289.18L459.38 334.18L420.41 356.68L381.44 334.18L381.44 289.18zM459.38 334.18L498.36 356.68L498.36 401.68L459.38 424.18L420.41 401.68L420.41 356.68zM420.41 536.68L459.38 559.18L459.38 604.18L420.41 626.68L381.44 604.18L381.44 559.18zM498.36 -3.32L537.33 19.18L537.33 64.18L498.36 86.68L459.38 64.18L459.38 19.18zM537.33 199.18L576.3 221.68L576.3 266.68L537.33 289.18L498.36 266.68L498.36 221.68zM537.33 469.18L576.3 491.68L576.3 536.68L537.33 559.18L498.36 536.68L498.36 491.68zM615.27 64.18L654.25 86.68L654.25 131.68L615.27 154.18L576.3 131.68L576.3 86.68zM576.3 131.68L615.27 154.18L615.27 199.18L576.3 221.68L537.33 199.18L537.33 154.18zM576.3 266.68L615.27 289.18L615.27 334.18L576.3 356.68L537.33 334.18L537.33 289.18zM576.3 536.68L615.27 559.18L615.27 604.18L576.3 626.68L537.33 604.18L537.33 559.18zM654.25 266.68L693.22 289.18L693.22 334.18L654.25 356.68L615.27 334.18L615.27 289.18zM654.25 401.68L693.22 424.18L693.22 469.18L654.25 491.68L615.27 469.18L615.27 424.18zM693.22 469.18L732.19 491.68L732.19 536.68L693.22 559.18L654.25 536.68L654.25 491.68zM732.19 -3.32L771.16 19.18L771.16 64.18L732.19 86.68L693.22 64.18L693.22 19.18zM849.11 334.18L888.08 356.68L888.08 401.68L849.11 424.18L810.14 401.68L810.14 356.68zM810.14 401.68L849.11 424.18L849.11 469.18L810.14 491.68L771.16 469.18L771.16 424.18zM810.14 536.68L849.11 559.18L849.11 604.18L810.14 626.68L771.16 604.18L771.16 559.18zM888.08 -3.32L927.05 19.18L927.05 64.18L888.08 86.68L849.11 64.18L849.11 19.18zM888.08 266.68L927.05 289.18L927.05 334.18L888.08 356.68L849.11 334.18L849.11 289.18zM927.05 334.18L966.02 356.68L966.02 401.68L927.05 424.18L888.08 401.68L888.08 356.68zM888.08 401.68L927.05 424.18L927.05 469.18L888.08 491.68L849.11 469.18L849.11 424.18zM1005 64.18L1043.97 86.68L1043.97 131.68L1005 154.18L966.02 131.68L966.02 86.68zM1005 199.18L1043.97 221.68L1043.97 266.68L1005 289.18L966.02 266.68L966.02 221.68zM1005 469.18L1043.97 491.68L1043.97 536.68L1005 559.18L966.02 536.68L966.02 491.68zM1043.97 -3.32L1082.94 19.18L1082.94 64.18L1043.97 86.68L1005 64.18L1005 19.18zM1043.97 131.68L1082.94 154.18L1082.94 199.18L1043.97 221.68L1005 199.18L1005 154.18zM1082.94 199.18L1121.91 221.68L1121.91 266.68L1082.94 289.18L1043.97 266.68L1043.97 221.68zM1043.97 536.68L1082.94 559.18L1082.94 604.18L1043.97 626.68L1005 604.18L1005 559.18zM1121.91 -3.32L1160.89 19.18L1160.89 64.18L1121.91 86.68L1082.94 64.18L1082.94 19.18zM1121.91 131.68L1160.89 154.18L1160.89 199.18L1121.91 221.68L1082.94 199.18L1082.94 154.18zM1121.91 266.68L1160.89 289.18L1160.89 334.18L1121.91 356.68L1082.94 334.18L1082.94 289.18zM1160.89 334.18L1199.86 356.68L1199.86 401.68L1160.89 424.18L1121.91 401.68L1121.91 356.68zM1121.91 536.68L1160.89 559.18L1160.89 604.18L1121.91 626.68L1082.94 604.18L1082.94 559.18zM1238.83 64.18L1277.8 86.68L1277.8 131.68L1238.83 154.18L1199.86 131.68L1199.86 86.68zM1238.83 199.18L1277.8 221.68L1277.8 266.68L1238.83 289.18L1199.86 266.68L1199.86 221.68zM1199.86 266.68L1238.83 289.18L1238.83 334.18L1199.86 356.68L1160.89 334.18L1160.89 289.18zM1238.83 334.18L1277.8 356.68L1277.8 401.68L1238.83 424.18L1199.86 401.68L1199.86 356.68zM1238.83 469.18L1277.8 491.68L1277.8 536.68L1238.83 559.18L1199.86 536.68L1199.86 491.68zM1316.77 64.18L1355.75 86.68L1355.75 131.68L1316.77 154.18L1277.8 131.68L1277.8 86.68zM1316.77 199.18L1355.75 221.68L1355.75 266.68L1316.77 289.18L1277.8 266.68L1277.8 221.68zM1277.8 536.68L1316.77 559.18L1316.77 604.18L1277.8 626.68L1238.83 604.18L1238.83 559.18zM1355.75 -3.32L1394.72 19.18L1394.72 64.18L1355.75 86.68L1316.77 64.18L1316.77 19.18zM1355.75 131.68L1394.72 154.18L1394.72 199.18L1355.75 221.68L1316.77 199.18L1316.77 154.18zM1355.75 266.68L1394.72 289.18L1394.72 334.18L1355.75 356.68L1316.77 334.18L1316.77 289.18zM1355.75 401.68L1394.72 424.18L1394.72 469.18L1355.75 491.68L1316.77 469.18L1316.77 424.18zM1355.75 536.68L1394.72 559.18L1394.72 604.18L1355.75 626.68L1316.77 604.18L1316.77 559.18zM1433.69 266.68L1472.66 289.18L1472.66 334.18L1433.69 356.68L1394.72 334.18L1394.72 289.18zM1472.66 334.18L1511.64 356.68L1511.64 401.68L1472.66 424.18L1433.69 401.68L1433.69 356.68zM1472.66 469.18L1511.64 491.68L1511.64 536.68L1472.66 559.18L1433.69 536.68L1433.69 491.68z" stroke="rgba(12, 13, 14, 0.64)" stroke-width="2"></path></g><defs><mask id="SvgjsMask1025"><rect width="1440" height="560" fill="#ffffff"></rect></mask></defs></svg>