<svg xmlns="http://www.w3.org/2000/svg" version="1.1" xmlns:xlink="http://www.w3.org/1999/xlink" xmlns:svgjs="http://svgjs.dev/svgjs" width="1440" height="560" preserveAspectRatio="none" viewBox="0 0 1440 560"><g mask="url(&quot;#SvgjsMask1045&quot;)" fill="none"><rect width="1440" height="560" x="0" y="0" fill="rgba(27, 30, 45, 1)"></rect><path d="M13.34 -17.05L40.19 -1.55L40.19 29.45L13.34 44.95L-13.51 29.45L-13.51 -1.55zM13.34 75.95L40.19 91.45L40.19 122.45L13.34 137.95L-13.51 122.45L-13.51 91.45zM40.19 215.45L67.04 230.95L67.04 261.95L40.19 277.45L13.34 261.95L13.34 230.95zM13.34 261.95L40.19 277.45L40.19 308.45L13.34 323.95L-13.51 308.45L-13.51 277.45zM40.19 308.45L67.04 323.95L67.04 354.95L40.19 370.45L13.34 354.95L13.34 323.95zM40.19 494.45L67.04 509.95L67.04 540.95L40.19 556.45L13.34 540.95L13.34 509.95zM93.88 122.45L120.73 137.95L120.73 168.95L93.88 184.45L67.04 168.95L67.04 137.95zM67.04 168.95L93.88 184.45L93.88 215.45L67.04 230.95L40.19 215.45L40.19 184.45zM67.04 447.95L93.88 463.45L93.88 494.45L67.04 509.95L40.19 494.45L40.19 463.45zM93.88 494.45L120.73 509.95L120.73 540.95L93.88 556.45L67.04 540.95L67.04 509.95zM67.04 540.95L93.88 556.45L93.88 587.45L67.04 602.95L40.19 587.45L40.19 556.45zM147.58 29.45L174.43 44.95L174.43 75.95L147.58 91.45L120.73 75.95L120.73 44.95zM147.58 122.45L174.43 137.95L174.43 168.95L147.58 184.45L120.73 168.95L120.73 137.95zM120.73 168.95L147.58 184.45L147.58 215.45L120.73 230.95L93.88 215.45L93.88 184.45zM120.73 261.95L147.58 277.45L147.58 308.45L120.73 323.95L93.88 308.45L93.88 277.45zM147.58 401.45L174.43 416.95L174.43 447.95L147.58 463.45L120.73 447.95L120.73 416.95zM120.73 447.95L147.58 463.45L147.58 494.45L120.73 509.95L93.88 494.45L93.88 463.45zM147.58 494.45L174.43 509.95L174.43 540.95L147.58 556.45L120.73 540.95L120.73 509.95zM174.43 168.95L201.27 184.45L201.27 215.45L174.43 230.95L147.58 215.45L147.58 184.45zM201.27 215.45L228.12 230.95L228.12 261.95L201.27 277.45L174.43 261.95L174.43 230.95zM174.43 261.95L201.27 277.45L201.27 308.45L174.43 323.95L147.58 308.45L147.58 277.45zM201.27 308.45L228.12 323.95L228.12 354.95L201.27 370.45L174.43 354.95L174.43 323.95zM254.97 29.45L281.82 44.95L281.82 75.95L254.97 91.45L228.12 75.95L228.12 44.95zM254.97 308.45L281.82 323.95L281.82 354.95L254.97 370.45L228.12 354.95L228.12 323.95zM228.12 447.95L254.97 463.45L254.97 494.45L228.12 509.95L201.27 494.45L201.27 463.45zM254.97 494.45L281.82 509.95L281.82 540.95L254.97 556.45L228.12 540.95L228.12 509.95zM228.12 540.95L254.97 556.45L254.97 587.45L228.12 602.95L201.27 587.45L201.27 556.45zM281.82 -17.05L308.66 -1.55L308.66 29.45L281.82 44.95L254.97 29.45L254.97 -1.55zM281.82 75.95L308.66 91.45L308.66 122.45L281.82 137.95L254.97 122.45L254.97 91.45zM308.66 122.45L335.51 137.95L335.51 168.95L308.66 184.45L281.82 168.95L281.82 137.95zM281.82 168.95L308.66 184.45L308.66 215.45L281.82 230.95L254.97 215.45L254.97 184.45zM308.66 215.45L335.51 230.95L335.51 261.95L308.66 277.45L281.82 261.95L281.82 230.95zM335.51 -17.05L362.36 -1.55L362.36 29.45L335.51 44.95L308.66 29.45L308.66 -1.55zM335.51 168.95L362.36 184.45L362.36 215.45L335.51 230.95L308.66 215.45L308.66 184.45zM362.36 401.45L389.21 416.95L389.21 447.95L362.36 463.45L335.51 447.95L335.51 416.95zM362.36 494.45L389.21 509.95L389.21 540.95L362.36 556.45L335.51 540.95L335.51 509.95zM335.51 540.95L362.36 556.45L362.36 587.45L335.51 602.95L308.66 587.45L308.66 556.45zM416.05 29.45L442.9 44.95L442.9 75.95L416.05 91.45L389.21 75.95L389.21 44.95zM416.05 122.45L442.9 137.95L442.9 168.95L416.05 184.45L389.21 168.95L389.21 137.95zM389.21 168.95L416.05 184.45L416.05 215.45L389.21 230.95L362.36 215.45L362.36 184.45zM416.05 215.45L442.9 230.95L442.9 261.95L416.05 277.45L389.21 261.95L389.21 230.95zM416.05 308.45L442.9 323.95L442.9 354.95L416.05 370.45L389.21 354.95L389.21 323.95zM389.21 447.95L416.05 463.45L416.05 494.45L389.21 509.95L362.36 494.45L362.36 463.45zM442.9 -17.05L469.75 -1.55L469.75 29.45L442.9 44.95L416.05 29.45L416.05 -1.55zM469.75 29.45L496.6 44.95L496.6 75.95L469.75 91.45L442.9 75.95L442.9 44.95zM442.9 75.95L469.75 91.45L469.75 122.45L442.9 137.95L416.05 122.45L416.05 91.45zM469.75 122.45L496.6 137.95L496.6 168.95L469.75 184.45L442.9 168.95L442.9 137.95zM469.75 215.45L496.6 230.95L496.6 261.95L469.75 277.45L442.9 261.95L442.9 230.95zM469.75 308.45L496.6 323.95L496.6 354.95L469.75 370.45L442.9 354.95L442.9 323.95zM469.75 401.45L496.6 416.95L496.6 447.95L469.75 463.45L442.9 447.95L442.9 416.95zM469.75 494.45L496.6 509.95L496.6 540.95L469.75 556.45L442.9 540.95L442.9 509.95zM496.6 75.95L523.44 91.45L523.44 122.45L496.6 137.95L469.75 122.45L469.75 91.45zM523.44 122.45L550.29 137.95L550.29 168.95L523.44 184.45L496.6 168.95L496.6 137.95zM496.6 168.95L523.44 184.45L523.44 215.45L496.6 230.95L469.75 215.45L469.75 184.45zM523.44 215.45L550.29 230.95L550.29 261.95L523.44 277.45L496.6 261.95L496.6 230.95zM523.44 308.45L550.29 323.95L550.29 354.95L523.44 370.45L496.6 354.95L496.6 323.95zM496.6 354.95L523.44 370.45L523.44 401.45L496.6 416.95L469.75 401.45L469.75 370.45zM496.6 447.95L523.44 463.45L523.44 494.45L496.6 509.95L469.75 494.45L469.75 463.45zM523.44 494.45L550.29 509.95L550.29 540.95L523.44 556.45L496.6 540.95L496.6 509.95zM496.6 540.95L523.44 556.45L523.44 587.45L496.6 602.95L469.75 587.45L469.75 556.45zM550.29 -17.05L577.14 -1.55L577.14 29.45L550.29 44.95L523.44 29.45L523.44 -1.55zM577.14 29.45L603.99 44.95L603.99 75.95L577.14 91.45L550.29 75.95L550.29 44.95zM577.14 122.45L603.99 137.95L603.99 168.95L577.14 184.45L550.29 168.95L550.29 137.95zM550.29 168.95L577.14 184.45L577.14 215.45L550.29 230.95L523.44 215.45L523.44 184.45zM577.14 215.45L603.99 230.95L603.99 261.95L577.14 277.45L550.29 261.95L550.29 230.95zM550.29 354.95L577.14 370.45L577.14 401.45L550.29 416.95L523.44 401.45L523.44 370.45zM577.14 494.45L603.99 509.95L603.99 540.95L577.14 556.45L550.29 540.95L550.29 509.95zM603.99 -17.05L630.83 -1.55L630.83 29.45L603.99 44.95L577.14 29.45L577.14 -1.55zM630.83 29.45L657.68 44.95L657.68 75.95L630.83 91.45L603.99 75.95L603.99 44.95zM603.99 261.95L630.83 277.45L630.83 308.45L603.99 323.95L577.14 308.45L577.14 277.45zM603.99 447.95L630.83 463.45L630.83 494.45L603.99 509.95L577.14 494.45L577.14 463.45zM657.68 75.95L684.53 91.45L684.53 122.45L657.68 137.95L630.83 122.45L630.83 91.45zM657.68 168.95L684.53 184.45L684.53 215.45L657.68 230.95L630.83 215.45L630.83 184.45zM684.53 215.45L711.38 230.95L711.38 261.95L684.53 277.45L657.68 261.95L657.68 230.95zM657.68 261.95L684.53 277.45L684.53 308.45L657.68 323.95L630.83 308.45L630.83 277.45zM657.68 447.95L684.53 463.45L684.53 494.45L657.68 509.95L630.83 494.45L630.83 463.45zM711.38 75.95L738.22 91.45L738.22 122.45L711.38 137.95L684.53 122.45L684.53 91.45zM738.22 308.45L765.07 323.95L765.07 354.95L738.22 370.45L711.38 354.95L711.38 323.95zM711.38 354.95L738.22 370.45L738.22 401.45L711.38 416.95L684.53 401.45L684.53 370.45zM738.22 494.45L765.07 509.95L765.07 540.95L738.22 556.45L711.38 540.95L711.38 509.95zM765.07 -17.05L791.92 -1.55L791.92 29.45L765.07 44.95L738.22 29.45L738.22 -1.55zM791.92 122.45L818.77 137.95L818.77 168.95L791.92 184.45L765.07 168.95L765.07 137.95zM765.07 168.95L791.92 184.45L791.92 215.45L765.07 230.95L738.22 215.45L738.22 184.45zM765.07 261.95L791.92 277.45L791.92 308.45L765.07 323.95L738.22 308.45L738.22 277.45zM818.77 -17.05L845.61 -1.55L845.61 29.45L818.77 44.95L791.92 29.45L791.92 -1.55zM845.61 122.45L872.46 137.95L872.46 168.95L845.61 184.45L818.77 168.95L818.77 137.95zM818.77 168.95L845.61 184.45L845.61 215.45L818.77 230.95L791.92 215.45L791.92 184.45zM818.77 261.95L845.61 277.45L845.61 308.45L818.77 323.95L791.92 308.45L791.92 277.45zM845.61 308.45L872.46 323.95L872.46 354.95L845.61 370.45L818.77 354.95L818.77 323.95zM845.61 401.45L872.46 416.95L872.46 447.95L845.61 463.45L818.77 447.95L818.77 416.95zM818.77 540.95L845.61 556.45L845.61 587.45L818.77 602.95L791.92 587.45L791.92 556.45zM872.46 -17.05L899.31 -1.55L899.31 29.45L872.46 44.95L845.61 29.45L845.61 -1.55zM872.46 75.95L899.31 91.45L899.31 122.45L872.46 137.95L845.61 122.45L845.61 91.45zM899.31 122.45L926.16 137.95L926.16 168.95L899.31 184.45L872.46 168.95L872.46 137.95zM899.31 494.45L926.16 509.95L926.16 540.95L899.31 556.45L872.46 540.95L872.46 509.95zM926.16 168.95L953 184.45L953 215.45L926.16 230.95L899.31 215.45L899.31 184.45zM953 215.45L979.85 230.95L979.85 261.95L953 277.45L926.16 261.95L926.16 230.95zM953 308.45L979.85 323.95L979.85 354.95L953 370.45L926.16 354.95L926.16 323.95zM926.16 540.95L953 556.45L953 587.45L926.16 602.95L899.31 587.45L899.31 556.45zM1006.7 29.45L1033.55 44.95L1033.55 75.95L1006.7 91.45L979.85 75.95L979.85 44.95zM979.85 261.95L1006.7 277.45L1006.7 308.45L979.85 323.95L953 308.45L953 277.45zM1006.7 308.45L1033.55 323.95L1033.55 354.95L1006.7 370.45L979.85 354.95L979.85 323.95zM1033.55 -17.05L1060.39 -1.55L1060.39 29.45L1033.55 44.95L1006.7 29.45L1006.7 -1.55zM1060.39 29.45L1087.24 44.95L1087.24 75.95L1060.39 91.45L1033.55 75.95L1033.55 44.95zM1033.55 168.95L1060.39 184.45L1060.39 215.45L1033.55 230.95L1006.7 215.45L1006.7 184.45zM1060.39 215.45L1087.24 230.95L1087.24 261.95L1060.39 277.45L1033.55 261.95L1033.55 230.95zM1033.55 261.95L1060.39 277.45L1060.39 308.45L1033.55 323.95L1006.7 308.45L1006.7 277.45zM1060.39 308.45L1087.24 323.95L1087.24 354.95L1060.39 370.45L1033.55 354.95L1033.55 323.95zM1060.39 401.45L1087.24 416.95L1087.24 447.95L1060.39 463.45L1033.55 447.95L1033.55 416.95zM1114.09 29.45L1140.94 44.95L1140.94 75.95L1114.09 91.45L1087.24 75.95L1087.24 44.95zM1087.24 75.95L1114.09 91.45L1114.09 122.45L1087.24 137.95L1060.39 122.45L1060.39 91.45zM1114.09 122.45L1140.94 137.95L1140.94 168.95L1114.09 184.45L1087.24 168.95L1087.24 137.95zM1114.09 308.45L1140.94 323.95L1140.94 354.95L1114.09 370.45L1087.24 354.95L1087.24 323.95zM1087.24 354.95L1114.09 370.45L1114.09 401.45L1087.24 416.95L1060.39 401.45L1060.39 370.45zM1087.24 447.95L1114.09 463.45L1114.09 494.45L1087.24 509.95L1060.39 494.45L1060.39 463.45zM1087.24 540.95L1114.09 556.45L1114.09 587.45L1087.24 602.95L1060.39 587.45L1060.39 556.45zM1167.78 29.45L1194.63 44.95L1194.63 75.95L1167.78 91.45L1140.94 75.95L1140.94 44.95zM1167.78 122.45L1194.63 137.95L1194.63 168.95L1167.78 184.45L1140.94 168.95L1140.94 137.95zM1140.94 168.95L1167.78 184.45L1167.78 215.45L1140.94 230.95L1114.09 215.45L1114.09 184.45zM1140.94 261.95L1167.78 277.45L1167.78 308.45L1140.94 323.95L1114.09 308.45L1114.09 277.45zM1167.78 494.45L1194.63 509.95L1194.63 540.95L1167.78 556.45L1140.94 540.95L1140.94 509.95zM1140.94 540.95L1167.78 556.45L1167.78 587.45L1140.94 602.95L1114.09 587.45L1114.09 556.45zM1194.63 -17.05L1221.48 -1.55L1221.48 29.45L1194.63 44.95L1167.78 29.45L1167.78 -1.55zM1221.48 494.45L1248.33 509.95L1248.33 540.95L1221.48 556.45L1194.63 540.95L1194.63 509.95zM1275.17 29.45L1302.02 44.95L1302.02 75.95L1275.17 91.45L1248.33 75.95L1248.33 44.95zM1248.33 75.95L1275.17 91.45L1275.17 122.45L1248.33 137.95L1221.48 122.45L1221.48 91.45zM1248.33 168.95L1275.17 184.45L1275.17 215.45L1248.33 230.95L1221.48 215.45L1221.48 184.45zM1275.17 401.45L1302.02 416.95L1302.02 447.95L1275.17 463.45L1248.33 447.95L1248.33 416.95zM1248.33 540.95L1275.17 556.45L1275.17 587.45L1248.33 602.95L1221.48 587.45L1221.48 556.45zM1328.87 122.45L1355.72 137.95L1355.72 168.95L1328.87 184.45L1302.02 168.95L1302.02 137.95zM1328.87 215.45L1355.72 230.95L1355.72 261.95L1328.87 277.45L1302.02 261.95L1302.02 230.95zM1328.87 308.45L1355.72 323.95L1355.72 354.95L1328.87 370.45L1302.02 354.95L1302.02 323.95zM1302.02 354.95L1328.87 370.45L1328.87 401.45L1302.02 416.95L1275.17 401.45L1275.17 370.45zM1328.87 401.45L1355.72 416.95L1355.72 447.95L1328.87 463.45L1302.02 447.95L1302.02 416.95zM1382.57 29.45L1409.41 44.95L1409.41 75.95L1382.57 91.45L1355.72 75.95L1355.72 44.95zM1355.72 75.95L1382.57 91.45L1382.57 122.45L1355.72 137.95L1328.87 122.45L1328.87 91.45zM1355.72 261.95L1382.57 277.45L1382.57 308.45L1355.72 323.95L1328.87 308.45L1328.87 277.45zM1382.57 308.45L1409.41 323.95L1409.41 354.95L1382.57 370.45L1355.72 354.95L1355.72 323.95zM1355.72 354.95L1382.57 370.45L1382.57 401.45L1355.72 416.95L1328.87 401.45L1328.87 370.45zM1382.57 494.45L1409.41 509.95L1409.41 540.95L1382.57 556.45L1355.72 540.95L1355.72 509.95zM1409.41 -17.05L1436.26 -1.55L1436.26 29.45L1409.41 44.95L1382.57 29.45L1382.57 -1.55zM1409.41 75.95L1436.26 91.45L1436.26 122.45L1409.41 137.95L1382.57 122.45L1382.57 91.45zM1436.26 122.45L1463.11 137.95L1463.11 168.95L1436.26 184.45L1409.41 168.95L1409.41 137.95zM1409.41 168.95L1436.26 184.45L1436.26 215.45L1409.41 230.95L1382.57 215.45L1382.57 184.45zM1436.26 401.45L1463.11 416.95L1463.11 447.95L1436.26 463.45L1409.41 447.95L1409.41 416.95zM1409.41 540.95L1436.26 556.45L1436.26 587.45L1409.41 602.95L1382.57 587.45L1382.57 556.45z" stroke="rgba(25, 28, 40, 1)" stroke-width="2"></path><path d="M10.24 -17.05 a3.1 3.1 0 1 0 6.2 0 a3.1 3.1 0 1 0 -6.2 0zM37.09 -1.55 a3.1 3.1 0 1 0 6.2 0 a3.1 3.1 0 1 0 -6.2 0zM37.09 29.45 a3.1 3.1 0 1 0 6.2 0 a3.1 3.1 0 1 0 -6.2 0zM10.24 44.95 a3.1 3.1 0 1 0 6.2 0 a3.1 3.1 0 1 0 -6.2 0zM-16.61 29.45 a3.1 3.1 0 1 0 6.2 0 a3.1 3.1 0 1 0 -6.2 0zM-16.61 -1.55 a3.1 3.1 0 1 0 6.2 0 a3.1 3.1 0 1 0 -6.2 0zM10.24 75.95 a3.1 3.1 0 1 0 6.2 0 a3.1 3.1 0 1 0 -6.2 0zM37.09 91.45 a3.1 3.1 0 1 0 6.2 0 a3.1 3.1 0 1 0 -6.2 0zM37.09 122.45 a3.1 3.1 0 1 0 6.2 0 a3.1 3.1 0 1 0 -6.2 0zM10.24 137.95 a3.1 3.1 0 1 0 6.2 0 a3.1 3.1 0 1 0 -6.2 0zM-16.61 122.45 a3.1 3.1 0 1 0 6.2 0 a3.1 3.1 0 1 0 -6.2 0zM-16.61 91.45 a3.1 3.1 0 1 0 6.2 0 a3.1 3.1 0 1 0 -6.2 0zM37.09 215.45 a3.1 3.1 0 1 0 6.2 0 a3.1 3.1 0 1 0 -6.2 0zM63.94 230.95 a3.1 3.1 0 1 0 6.2 0 a3.1 3.1 0 1 0 -6.2 0zM63.94 261.95 a3.1 3.1 0 1 0 6.2 0 a3.1 3.1 0 1 0 -6.2 0zM37.09 277.45 a3.1 3.1 0 1 0 6.2 0 a3.1 3.1 0 1 0 -6.2 0zM10.24 261.95 a3.1 3.1 0 1 0 6.2 0 a3.1 3.1 0 1 0 -6.2 0zM10.24 230.95 a3.1 3.1 0 1 0 6.2 0 a3.1 3.1 0 1 0 -6.2 0zM37.09 308.45 a3.1 3.1 0 1 0 6.2 0 a3.1 3.1 0 1 0 -6.2 0zM10.24 323.95 a3.1 3.1 0 1 0 6.2 0 a3.1 3.1 0 1 0 -6.2 0zM-16.61 308.45 a3.1 3.1 0 1 0 6.2 0 a3.1 3.1 0 1 0 -6.2 0zM-16.61 277.45 a3.1 3.1 0 1 0 6.2 0 a3.1 3.1 0 1 0 -6.2 0zM63.94 323.95 a3.1 3.1 0 1 0 6.2 0 a3.1 3.1 0 1 0 -6.2 0zM63.94 354.95 a3.1 3.1 0 1 0 6.2 0 a3.1 3.1 0 1 0 -6.2 0zM37.09 370.45 a3.1 3.1 0 1 0 6.2 0 a3.1 3.1 0 1 0 -6.2 0zM10.24 354.95 a3.1 3.1 0 1 0 6.2 0 a3.1 3.1 0 1 0 -6.2 0zM37.09 494.45 a3.1 3.1 0 1 0 6.2 0 a3.1 3.1 0 1 0 -6.2 0zM63.94 509.95 a3.1 3.1 0 1 0 6.2 0 a3.1 3.1 0 1 0 -6.2 0zM63.94 540.95 a3.1 3.1 0 1 0 6.2 0 a3.1 3.1 0 1 0 -6.2 0zM37.09 556.45 a3.1 3.1 0 1 0 6.2 0 a3.1 3.1 0 1 0 -6.2 0zM10.24 540.95 a3.1 3.1 0 1 0 6.2 0 a3.1 3.1 0 1 0 -6.2 0zM10.24 509.95 a3.1 3.1 0 1 0 6.2 0 a3.1 3.1 0 1 0 -6.2 0zM90.78 122.45 a3.1 3.1 0 1 0 6.2 0 a3.1 3.1 0 1 0 -6.2 0zM117.63 137.95 a3.1 3.1 0 1 0 6.2 0 a3.1 3.1 0 1 0 -6.2 0zM117.63 168.95 a3.1 3.1 0 1 0 6.2 0 a3.1 3.1 0 1 0 -6.2 0zM90.78 184.45 a3.1 3.1 0 1 0 6.2 0 a3.1 3.1 0 1 0 -6.2 0zM63.94 168.95 a3.1 3.1 0 1 0 6.2 0 a3.1 3.1 0 1 0 -6.2 0zM63.94 137.95 a3.1 3.1 0 1 0 6.2 0 a3.1 3.1 0 1 0 -6.2 0zM90.78 215.45 a3.1 3.1 0 1 0 6.2 0 a3.1 3.1 0 1 0 -6.2 0zM37.09 184.45 a3.1 3.1 0 1 0 6.2 0 a3.1 3.1 0 1 0 -6.2 0zM63.94 447.95 a3.1 3.1 0 1 0 6.2 0 a3.1 3.1 0 1 0 -6.2 0zM90.78 463.45 a3.1 3.1 0 1 0 6.2 0 a3.1 3.1 0 1 0 -6.2 0zM90.78 494.45 a3.1 3.1 0 1 0 6.2 0 a3.1 3.1 0 1 0 -6.2 0zM37.09 463.45 a3.1 3.1 0 1 0 6.2 0 a3.1 3.1 0 1 0 -6.2 0zM117.63 509.95 a3.1 3.1 0 1 0 6.2 0 a3.1 3.1 0 1 0 -6.2 0zM117.63 540.95 a3.1 3.1 0 1 0 6.2 0 a3.1 3.1 0 1 0 -6.2 0zM90.78 556.45 a3.1 3.1 0 1 0 6.2 0 a3.1 3.1 0 1 0 -6.2 0zM90.78 587.45 a3.1 3.1 0 1 0 6.2 0 a3.1 3.1 0 1 0 -6.2 0zM63.94 602.95 a3.1 3.1 0 1 0 6.2 0 a3.1 3.1 0 1 0 -6.2 0zM37.09 587.45 a3.1 3.1 0 1 0 6.2 0 a3.1 3.1 0 1 0 -6.2 0zM144.48 29.45 a3.1 3.1 0 1 0 6.2 0 a3.1 3.1 0 1 0 -6.2 0zM171.33 44.95 a3.1 3.1 0 1 0 6.2 0 a3.1 3.1 0 1 0 -6.2 0zM171.33 75.95 a3.1 3.1 0 1 0 6.2 0 a3.1 3.1 0 1 0 -6.2 0zM144.48 91.45 a3.1 3.1 0 1 0 6.2 0 a3.1 3.1 0 1 0 -6.2 0zM117.63 75.95 a3.1 3.1 0 1 0 6.2 0 a3.1 3.1 0 1 0 -6.2 0zM117.63 44.95 a3.1 3.1 0 1 0 6.2 0 a3.1 3.1 0 1 0 -6.2 0zM144.48 122.45 a3.1 3.1 0 1 0 6.2 0 a3.1 3.1 0 1 0 -6.2 0zM171.33 137.95 a3.1 3.1 0 1 0 6.2 0 a3.1 3.1 0 1 0 -6.2 0zM171.33 168.95 a3.1 3.1 0 1 0 6.2 0 a3.1 3.1 0 1 0 -6.2 0zM144.48 184.45 a3.1 3.1 0 1 0 6.2 0 a3.1 3.1 0 1 0 -6.2 0zM144.48 215.45 a3.1 3.1 0 1 0 6.2 0 a3.1 3.1 0 1 0 -6.2 0zM117.63 230.95 a3.1 3.1 0 1 0 6.2 0 a3.1 3.1 0 1 0 -6.2 0zM117.63 261.95 a3.1 3.1 0 1 0 6.2 0 a3.1 3.1 0 1 0 -6.2 0zM144.48 277.45 a3.1 3.1 0 1 0 6.2 0 a3.1 3.1 0 1 0 -6.2 0zM144.48 308.45 a3.1 3.1 0 1 0 6.2 0 a3.1 3.1 0 1 0 -6.2 0zM117.63 323.95 a3.1 3.1 0 1 0 6.2 0 a3.1 3.1 0 1 0 -6.2 0zM90.78 308.45 a3.1 3.1 0 1 0 6.2 0 a3.1 3.1 0 1 0 -6.2 0zM90.78 277.45 a3.1 3.1 0 1 0 6.2 0 a3.1 3.1 0 1 0 -6.2 0zM144.48 401.45 a3.1 3.1 0 1 0 6.2 0 a3.1 3.1 0 1 0 -6.2 0zM171.33 416.95 a3.1 3.1 0 1 0 6.2 0 a3.1 3.1 0 1 0 -6.2 0zM171.33 447.95 a3.1 3.1 0 1 0 6.2 0 a3.1 3.1 0 1 0 -6.2 0zM144.48 463.45 a3.1 3.1 0 1 0 6.2 0 a3.1 3.1 0 1 0 -6.2 0zM117.63 447.95 a3.1 3.1 0 1 0 6.2 0 a3.1 3.1 0 1 0 -6.2 0zM117.63 416.95 a3.1 3.1 0 1 0 6.2 0 a3.1 3.1 0 1 0 -6.2 0zM144.48 494.45 a3.1 3.1 0 1 0 6.2 0 a3.1 3.1 0 1 0 -6.2 0zM171.33 509.95 a3.1 3.1 0 1 0 6.2 0 a3.1 3.1 0 1 0 -6.2 0zM171.33 540.95 a3.1 3.1 0 1 0 6.2 0 a3.1 3.1 0 1 0 -6.2 0zM144.48 556.45 a3.1 3.1 0 1 0 6.2 0 a3.1 3.1 0 1 0 -6.2 0zM198.17 184.45 a3.1 3.1 0 1 0 6.2 0 a3.1 3.1 0 1 0 -6.2 0zM198.17 215.45 a3.1 3.1 0 1 0 6.2 0 a3.1 3.1 0 1 0 -6.2 0zM171.33 230.95 a3.1 3.1 0 1 0 6.2 0 a3.1 3.1 0 1 0 -6.2 0zM225.02 230.95 a3.1 3.1 0 1 0 6.2 0 a3.1 3.1 0 1 0 -6.2 0zM225.02 261.95 a3.1 3.1 0 1 0 6.2 0 a3.1 3.1 0 1 0 -6.2 0zM198.17 277.45 a3.1 3.1 0 1 0 6.2 0 a3.1 3.1 0 1 0 -6.2 0zM171.33 261.95 a3.1 3.1 0 1 0 6.2 0 a3.1 3.1 0 1 0 -6.2 0zM198.17 308.45 a3.1 3.1 0 1 0 6.2 0 a3.1 3.1 0 1 0 -6.2 0zM171.33 323.95 a3.1 3.1 0 1 0 6.2 0 a3.1 3.1 0 1 0 -6.2 0zM225.02 323.95 a3.1 3.1 0 1 0 6.2 0 a3.1 3.1 0 1 0 -6.2 0zM225.02 354.95 a3.1 3.1 0 1 0 6.2 0 a3.1 3.1 0 1 0 -6.2 0zM198.17 370.45 a3.1 3.1 0 1 0 6.2 0 a3.1 3.1 0 1 0 -6.2 0zM171.33 354.95 a3.1 3.1 0 1 0 6.2 0 a3.1 3.1 0 1 0 -6.2 0zM251.87 29.45 a3.1 3.1 0 1 0 6.2 0 a3.1 3.1 0 1 0 -6.2 0zM278.72 44.95 a3.1 3.1 0 1 0 6.2 0 a3.1 3.1 0 1 0 -6.2 0zM278.72 75.95 a3.1 3.1 0 1 0 6.2 0 a3.1 3.1 0 1 0 -6.2 0zM251.87 91.45 a3.1 3.1 0 1 0 6.2 0 a3.1 3.1 0 1 0 -6.2 0zM225.02 75.95 a3.1 3.1 0 1 0 6.2 0 a3.1 3.1 0 1 0 -6.2 0zM225.02 44.95 a3.1 3.1 0 1 0 6.2 0 a3.1 3.1 0 1 0 -6.2 0zM251.87 308.45 a3.1 3.1 0 1 0 6.2 0 a3.1 3.1 0 1 0 -6.2 0zM278.72 323.95 a3.1 3.1 0 1 0 6.2 0 a3.1 3.1 0 1 0 -6.2 0zM278.72 354.95 a3.1 3.1 0 1 0 6.2 0 a3.1 3.1 0 1 0 -6.2 0zM251.87 370.45 a3.1 3.1 0 1 0 6.2 0 a3.1 3.1 0 1 0 -6.2 0zM225.02 447.95 a3.1 3.1 0 1 0 6.2 0 a3.1 3.1 0 1 0 -6.2 0zM251.87 463.45 a3.1 3.1 0 1 0 6.2 0 a3.1 3.1 0 1 0 -6.2 0zM251.87 494.45 a3.1 3.1 0 1 0 6.2 0 a3.1 3.1 0 1 0 -6.2 0zM225.02 509.95 a3.1 3.1 0 1 0 6.2 0 a3.1 3.1 0 1 0 -6.2 0zM198.17 494.45 a3.1 3.1 0 1 0 6.2 0 a3.1 3.1 0 1 0 -6.2 0zM198.17 463.45 a3.1 3.1 0 1 0 6.2 0 a3.1 3.1 0 1 0 -6.2 0zM278.72 509.95 a3.1 3.1 0 1 0 6.2 0 a3.1 3.1 0 1 0 -6.2 0zM278.72 540.95 a3.1 3.1 0 1 0 6.2 0 a3.1 3.1 0 1 0 -6.2 0zM251.87 556.45 a3.1 3.1 0 1 0 6.2 0 a3.1 3.1 0 1 0 -6.2 0zM225.02 540.95 a3.1 3.1 0 1 0 6.2 0 a3.1 3.1 0 1 0 -6.2 0zM251.87 587.45 a3.1 3.1 0 1 0 6.2 0 a3.1 3.1 0 1 0 -6.2 0zM225.02 602.95 a3.1 3.1 0 1 0 6.2 0 a3.1 3.1 0 1 0 -6.2 0zM198.17 587.45 a3.1 3.1 0 1 0 6.2 0 a3.1 3.1 0 1 0 -6.2 0zM198.17 556.45 a3.1 3.1 0 1 0 6.2 0 a3.1 3.1 0 1 0 -6.2 0zM278.72 -17.05 a3.1 3.1 0 1 0 6.2 0 a3.1 3.1 0 1 0 -6.2 0zM305.56 -1.55 a3.1 3.1 0 1 0 6.2 0 a3.1 3.1 0 1 0 -6.2 0zM305.56 29.45 a3.1 3.1 0 1 0 6.2 0 a3.1 3.1 0 1 0 -6.2 0zM251.87 -1.55 a3.1 3.1 0 1 0 6.2 0 a3.1 3.1 0 1 0 -6.2 0zM305.56 91.45 a3.1 3.1 0 1 0 6.2 0 a3.1 3.1 0 1 0 -6.2 0zM305.56 122.45 a3.1 3.1 0 1 0 6.2 0 a3.1 3.1 0 1 0 -6.2 0zM278.72 137.95 a3.1 3.1 0 1 0 6.2 0 a3.1 3.1 0 1 0 -6.2 0zM251.87 122.45 a3.1 3.1 0 1 0 6.2 0 a3.1 3.1 0 1 0 -6.2 0zM332.41 137.95 a3.1 3.1 0 1 0 6.2 0 a3.1 3.1 0 1 0 -6.2 0zM332.41 168.95 a3.1 3.1 0 1 0 6.2 0 a3.1 3.1 0 1 0 -6.2 0zM305.56 184.45 a3.1 3.1 0 1 0 6.2 0 a3.1 3.1 0 1 0 -6.2 0zM278.72 168.95 a3.1 3.1 0 1 0 6.2 0 a3.1 3.1 0 1 0 -6.2 0zM305.56 215.45 a3.1 3.1 0 1 0 6.2 0 a3.1 3.1 0 1 0 -6.2 0zM278.72 230.95 a3.1 3.1 0 1 0 6.2 0 a3.1 3.1 0 1 0 -6.2 0zM251.87 215.45 a3.1 3.1 0 1 0 6.2 0 a3.1 3.1 0 1 0 -6.2 0zM251.87 184.45 a3.1 3.1 0 1 0 6.2 0 a3.1 3.1 0 1 0 -6.2 0zM332.41 230.95 a3.1 3.1 0 1 0 6.2 0 a3.1 3.1 0 1 0 -6.2 0zM332.41 261.95 a3.1 3.1 0 1 0 6.2 0 a3.1 3.1 0 1 0 -6.2 0zM305.56 277.45 a3.1 3.1 0 1 0 6.2 0 a3.1 3.1 0 1 0 -6.2 0zM278.72 261.95 a3.1 3.1 0 1 0 6.2 0 a3.1 3.1 0 1 0 -6.2 0zM332.41 -17.05 a3.1 3.1 0 1 0 6.2 0 a3.1 3.1 0 1 0 -6.2 0zM359.26 -1.55 a3.1 3.1 0 1 0 6.2 0 a3.1 3.1 0 1 0 -6.2 0zM359.26 29.45 a3.1 3.1 0 1 0 6.2 0 a3.1 3.1 0 1 0 -6.2 0zM332.41 44.95 a3.1 3.1 0 1 0 6.2 0 a3.1 3.1 0 1 0 -6.2 0zM359.26 184.45 a3.1 3.1 0 1 0 6.2 0 a3.1 3.1 0 1 0 -6.2 0zM359.26 215.45 a3.1 3.1 0 1 0 6.2 0 a3.1 3.1 0 1 0 -6.2 0zM359.26 401.45 a3.1 3.1 0 1 0 6.2 0 a3.1 3.1 0 1 0 -6.2 0zM386.11 416.95 a3.1 3.1 0 1 0 6.2 0 a3.1 3.1 0 1 0 -6.2 0zM386.11 447.95 a3.1 3.1 0 1 0 6.2 0 a3.1 3.1 0 1 0 -6.2 0zM359.26 463.45 a3.1 3.1 0 1 0 6.2 0 a3.1 3.1 0 1 0 -6.2 0zM332.41 447.95 a3.1 3.1 0 1 0 6.2 0 a3.1 3.1 0 1 0 -6.2 0zM332.41 416.95 a3.1 3.1 0 1 0 6.2 0 a3.1 3.1 0 1 0 -6.2 0zM359.26 494.45 a3.1 3.1 0 1 0 6.2 0 a3.1 3.1 0 1 0 -6.2 0zM386.11 509.95 a3.1 3.1 0 1 0 6.2 0 a3.1 3.1 0 1 0 -6.2 0zM386.11 540.95 a3.1 3.1 0 1 0 6.2 0 a3.1 3.1 0 1 0 -6.2 0zM359.26 556.45 a3.1 3.1 0 1 0 6.2 0 a3.1 3.1 0 1 0 -6.2 0zM332.41 540.95 a3.1 3.1 0 1 0 6.2 0 a3.1 3.1 0 1 0 -6.2 0zM332.41 509.95 a3.1 3.1 0 1 0 6.2 0 a3.1 3.1 0 1 0 -6.2 0zM359.26 587.45 a3.1 3.1 0 1 0 6.2 0 a3.1 3.1 0 1 0 -6.2 0zM332.41 602.95 a3.1 3.1 0 1 0 6.2 0 a3.1 3.1 0 1 0 -6.2 0zM305.56 587.45 a3.1 3.1 0 1 0 6.2 0 a3.1 3.1 0 1 0 -6.2 0zM305.56 556.45 a3.1 3.1 0 1 0 6.2 0 a3.1 3.1 0 1 0 -6.2 0zM412.95 29.45 a3.1 3.1 0 1 0 6.2 0 a3.1 3.1 0 1 0 -6.2 0zM439.8 44.95 a3.1 3.1 0 1 0 6.2 0 a3.1 3.1 0 1 0 -6.2 0zM439.8 75.95 a3.1 3.1 0 1 0 6.2 0 a3.1 3.1 0 1 0 -6.2 0zM412.95 91.45 a3.1 3.1 0 1 0 6.2 0 a3.1 3.1 0 1 0 -6.2 0zM386.11 75.95 a3.1 3.1 0 1 0 6.2 0 a3.1 3.1 0 1 0 -6.2 0zM386.11 44.95 a3.1 3.1 0 1 0 6.2 0 a3.1 3.1 0 1 0 -6.2 0zM412.95 122.45 a3.1 3.1 0 1 0 6.2 0 a3.1 3.1 0 1 0 -6.2 0zM439.8 137.95 a3.1 3.1 0 1 0 6.2 0 a3.1 3.1 0 1 0 -6.2 0zM439.8 168.95 a3.1 3.1 0 1 0 6.2 0 a3.1 3.1 0 1 0 -6.2 0zM412.95 184.45 a3.1 3.1 0 1 0 6.2 0 a3.1 3.1 0 1 0 -6.2 0zM386.11 168.95 a3.1 3.1 0 1 0 6.2 0 a3.1 3.1 0 1 0 -6.2 0zM386.11 137.95 a3.1 3.1 0 1 0 6.2 0 a3.1 3.1 0 1 0 -6.2 0zM412.95 215.45 a3.1 3.1 0 1 0 6.2 0 a3.1 3.1 0 1 0 -6.2 0zM386.11 230.95 a3.1 3.1 0 1 0 6.2 0 a3.1 3.1 0 1 0 -6.2 0zM439.8 230.95 a3.1 3.1 0 1 0 6.2 0 a3.1 3.1 0 1 0 -6.2 0zM439.8 261.95 a3.1 3.1 0 1 0 6.2 0 a3.1 3.1 0 1 0 -6.2 0zM412.95 277.45 a3.1 3.1 0 1 0 6.2 0 a3.1 3.1 0 1 0 -6.2 0zM386.11 261.95 a3.1 3.1 0 1 0 6.2 0 a3.1 3.1 0 1 0 -6.2 0zM412.95 308.45 a3.1 3.1 0 1 0 6.2 0 a3.1 3.1 0 1 0 -6.2 0zM439.8 323.95 a3.1 3.1 0 1 0 6.2 0 a3.1 3.1 0 1 0 -6.2 0zM439.8 354.95 a3.1 3.1 0 1 0 6.2 0 a3.1 3.1 0 1 0 -6.2 0zM412.95 370.45 a3.1 3.1 0 1 0 6.2 0 a3.1 3.1 0 1 0 -6.2 0zM386.11 354.95 a3.1 3.1 0 1 0 6.2 0 a3.1 3.1 0 1 0 -6.2 0zM386.11 323.95 a3.1 3.1 0 1 0 6.2 0 a3.1 3.1 0 1 0 -6.2 0zM412.95 463.45 a3.1 3.1 0 1 0 6.2 0 a3.1 3.1 0 1 0 -6.2 0zM412.95 494.45 a3.1 3.1 0 1 0 6.2 0 a3.1 3.1 0 1 0 -6.2 0zM439.8 -17.05 a3.1 3.1 0 1 0 6.2 0 a3.1 3.1 0 1 0 -6.2 0zM466.65 -1.55 a3.1 3.1 0 1 0 6.2 0 a3.1 3.1 0 1 0 -6.2 0zM466.65 29.45 a3.1 3.1 0 1 0 6.2 0 a3.1 3.1 0 1 0 -6.2 0zM412.95 -1.55 a3.1 3.1 0 1 0 6.2 0 a3.1 3.1 0 1 0 -6.2 0zM493.5 44.95 a3.1 3.1 0 1 0 6.2 0 a3.1 3.1 0 1 0 -6.2 0zM493.5 75.95 a3.1 3.1 0 1 0 6.2 0 a3.1 3.1 0 1 0 -6.2 0zM466.65 91.45 a3.1 3.1 0 1 0 6.2 0 a3.1 3.1 0 1 0 -6.2 0zM466.65 122.45 a3.1 3.1 0 1 0 6.2 0 a3.1 3.1 0 1 0 -6.2 0zM493.5 137.95 a3.1 3.1 0 1 0 6.2 0 a3.1 3.1 0 1 0 -6.2 0zM493.5 168.95 a3.1 3.1 0 1 0 6.2 0 a3.1 3.1 0 1 0 -6.2 0zM466.65 184.45 a3.1 3.1 0 1 0 6.2 0 a3.1 3.1 0 1 0 -6.2 0zM466.65 215.45 a3.1 3.1 0 1 0 6.2 0 a3.1 3.1 0 1 0 -6.2 0zM493.5 230.95 a3.1 3.1 0 1 0 6.2 0 a3.1 3.1 0 1 0 -6.2 0zM493.5 261.95 a3.1 3.1 0 1 0 6.2 0 a3.1 3.1 0 1 0 -6.2 0zM466.65 277.45 a3.1 3.1 0 1 0 6.2 0 a3.1 3.1 0 1 0 -6.2 0zM466.65 308.45 a3.1 3.1 0 1 0 6.2 0 a3.1 3.1 0 1 0 -6.2 0zM493.5 323.95 a3.1 3.1 0 1 0 6.2 0 a3.1 3.1 0 1 0 -6.2 0zM493.5 354.95 a3.1 3.1 0 1 0 6.2 0 a3.1 3.1 0 1 0 -6.2 0zM466.65 370.45 a3.1 3.1 0 1 0 6.2 0 a3.1 3.1 0 1 0 -6.2 0zM466.65 401.45 a3.1 3.1 0 1 0 6.2 0 a3.1 3.1 0 1 0 -6.2 0zM493.5 416.95 a3.1 3.1 0 1 0 6.2 0 a3.1 3.1 0 1 0 -6.2 0zM493.5 447.95 a3.1 3.1 0 1 0 6.2 0 a3.1 3.1 0 1 0 -6.2 0zM466.65 463.45 a3.1 3.1 0 1 0 6.2 0 a3.1 3.1 0 1 0 -6.2 0zM439.8 447.95 a3.1 3.1 0 1 0 6.2 0 a3.1 3.1 0 1 0 -6.2 0zM439.8 416.95 a3.1 3.1 0 1 0 6.2 0 a3.1 3.1 0 1 0 -6.2 0zM466.65 494.45 a3.1 3.1 0 1 0 6.2 0 a3.1 3.1 0 1 0 -6.2 0zM493.5 509.95 a3.1 3.1 0 1 0 6.2 0 a3.1 3.1 0 1 0 -6.2 0zM493.5 540.95 a3.1 3.1 0 1 0 6.2 0 a3.1 3.1 0 1 0 -6.2 0zM466.65 556.45 a3.1 3.1 0 1 0 6.2 0 a3.1 3.1 0 1 0 -6.2 0zM439.8 540.95 a3.1 3.1 0 1 0 6.2 0 a3.1 3.1 0 1 0 -6.2 0zM439.8 509.95 a3.1 3.1 0 1 0 6.2 0 a3.1 3.1 0 1 0 -6.2 0zM520.34 91.45 a3.1 3.1 0 1 0 6.2 0 a3.1 3.1 0 1 0 -6.2 0zM520.34 122.45 a3.1 3.1 0 1 0 6.2 0 a3.1 3.1 0 1 0 -6.2 0zM547.19 137.95 a3.1 3.1 0 1 0 6.2 0 a3.1 3.1 0 1 0 -6.2 0zM547.19 168.95 a3.1 3.1 0 1 0 6.2 0 a3.1 3.1 0 1 0 -6.2 0zM520.34 184.45 a3.1 3.1 0 1 0 6.2 0 a3.1 3.1 0 1 0 -6.2 0zM520.34 215.45 a3.1 3.1 0 1 0 6.2 0 a3.1 3.1 0 1 0 -6.2 0zM547.19 230.95 a3.1 3.1 0 1 0 6.2 0 a3.1 3.1 0 1 0 -6.2 0zM547.19 261.95 a3.1 3.1 0 1 0 6.2 0 a3.1 3.1 0 1 0 -6.2 0zM520.34 277.45 a3.1 3.1 0 1 0 6.2 0 a3.1 3.1 0 1 0 -6.2 0zM520.34 308.45 a3.1 3.1 0 1 0 6.2 0 a3.1 3.1 0 1 0 -6.2 0zM547.19 323.95 a3.1 3.1 0 1 0 6.2 0 a3.1 3.1 0 1 0 -6.2 0zM547.19 354.95 a3.1 3.1 0 1 0 6.2 0 a3.1 3.1 0 1 0 -6.2 0zM520.34 370.45 a3.1 3.1 0 1 0 6.2 0 a3.1 3.1 0 1 0 -6.2 0zM520.34 401.45 a3.1 3.1 0 1 0 6.2 0 a3.1 3.1 0 1 0 -6.2 0zM520.34 463.45 a3.1 3.1 0 1 0 6.2 0 a3.1 3.1 0 1 0 -6.2 0zM520.34 494.45 a3.1 3.1 0 1 0 6.2 0 a3.1 3.1 0 1 0 -6.2 0zM547.19 509.95 a3.1 3.1 0 1 0 6.2 0 a3.1 3.1 0 1 0 -6.2 0zM547.19 540.95 a3.1 3.1 0 1 0 6.2 0 a3.1 3.1 0 1 0 -6.2 0zM520.34 556.45 a3.1 3.1 0 1 0 6.2 0 a3.1 3.1 0 1 0 -6.2 0zM520.34 587.45 a3.1 3.1 0 1 0 6.2 0 a3.1 3.1 0 1 0 -6.2 0zM493.5 602.95 a3.1 3.1 0 1 0 6.2 0 a3.1 3.1 0 1 0 -6.2 0zM466.65 587.45 a3.1 3.1 0 1 0 6.2 0 a3.1 3.1 0 1 0 -6.2 0zM547.19 -17.05 a3.1 3.1 0 1 0 6.2 0 a3.1 3.1 0 1 0 -6.2 0zM574.04 -1.55 a3.1 3.1 0 1 0 6.2 0 a3.1 3.1 0 1 0 -6.2 0zM574.04 29.45 a3.1 3.1 0 1 0 6.2 0 a3.1 3.1 0 1 0 -6.2 0zM547.19 44.95 a3.1 3.1 0 1 0 6.2 0 a3.1 3.1 0 1 0 -6.2 0zM520.34 29.45 a3.1 3.1 0 1 0 6.2 0 a3.1 3.1 0 1 0 -6.2 0zM520.34 -1.55 a3.1 3.1 0 1 0 6.2 0 a3.1 3.1 0 1 0 -6.2 0zM600.89 44.95 a3.1 3.1 0 1 0 6.2 0 a3.1 3.1 0 1 0 -6.2 0zM600.89 75.95 a3.1 3.1 0 1 0 6.2 0 a3.1 3.1 0 1 0 -6.2 0zM574.04 91.45 a3.1 3.1 0 1 0 6.2 0 a3.1 3.1 0 1 0 -6.2 0zM547.19 75.95 a3.1 3.1 0 1 0 6.2 0 a3.1 3.1 0 1 0 -6.2 0zM574.04 122.45 a3.1 3.1 0 1 0 6.2 0 a3.1 3.1 0 1 0 -6.2 0zM600.89 137.95 a3.1 3.1 0 1 0 6.2 0 a3.1 3.1 0 1 0 -6.2 0zM600.89 168.95 a3.1 3.1 0 1 0 6.2 0 a3.1 3.1 0 1 0 -6.2 0zM574.04 184.45 a3.1 3.1 0 1 0 6.2 0 a3.1 3.1 0 1 0 -6.2 0zM574.04 215.45 a3.1 3.1 0 1 0 6.2 0 a3.1 3.1 0 1 0 -6.2 0zM600.89 230.95 a3.1 3.1 0 1 0 6.2 0 a3.1 3.1 0 1 0 -6.2 0zM600.89 261.95 a3.1 3.1 0 1 0 6.2 0 a3.1 3.1 0 1 0 -6.2 0zM574.04 277.45 a3.1 3.1 0 1 0 6.2 0 a3.1 3.1 0 1 0 -6.2 0zM574.04 370.45 a3.1 3.1 0 1 0 6.2 0 a3.1 3.1 0 1 0 -6.2 0zM574.04 401.45 a3.1 3.1 0 1 0 6.2 0 a3.1 3.1 0 1 0 -6.2 0zM547.19 416.95 a3.1 3.1 0 1 0 6.2 0 a3.1 3.1 0 1 0 -6.2 0zM574.04 494.45 a3.1 3.1 0 1 0 6.2 0 a3.1 3.1 0 1 0 -6.2 0zM600.89 509.95 a3.1 3.1 0 1 0 6.2 0 a3.1 3.1 0 1 0 -6.2 0zM600.89 540.95 a3.1 3.1 0 1 0 6.2 0 a3.1 3.1 0 1 0 -6.2 0zM574.04 556.45 a3.1 3.1 0 1 0 6.2 0 a3.1 3.1 0 1 0 -6.2 0zM600.89 -17.05 a3.1 3.1 0 1 0 6.2 0 a3.1 3.1 0 1 0 -6.2 0zM627.73 -1.55 a3.1 3.1 0 1 0 6.2 0 a3.1 3.1 0 1 0 -6.2 0zM627.73 29.45 a3.1 3.1 0 1 0 6.2 0 a3.1 3.1 0 1 0 -6.2 0zM654.58 44.95 a3.1 3.1 0 1 0 6.2 0 a3.1 3.1 0 1 0 -6.2 0zM654.58 75.95 a3.1 3.1 0 1 0 6.2 0 a3.1 3.1 0 1 0 -6.2 0zM627.73 91.45 a3.1 3.1 0 1 0 6.2 0 a3.1 3.1 0 1 0 -6.2 0zM627.73 277.45 a3.1 3.1 0 1 0 6.2 0 a3.1 3.1 0 1 0 -6.2 0zM627.73 308.45 a3.1 3.1 0 1 0 6.2 0 a3.1 3.1 0 1 0 -6.2 0zM600.89 323.95 a3.1 3.1 0 1 0 6.2 0 a3.1 3.1 0 1 0 -6.2 0zM574.04 308.45 a3.1 3.1 0 1 0 6.2 0 a3.1 3.1 0 1 0 -6.2 0zM600.89 447.95 a3.1 3.1 0 1 0 6.2 0 a3.1 3.1 0 1 0 -6.2 0zM627.73 463.45 a3.1 3.1 0 1 0 6.2 0 a3.1 3.1 0 1 0 -6.2 0zM627.73 494.45 a3.1 3.1 0 1 0 6.2 0 a3.1 3.1 0 1 0 -6.2 0zM574.04 463.45 a3.1 3.1 0 1 0 6.2 0 a3.1 3.1 0 1 0 -6.2 0zM681.43 91.45 a3.1 3.1 0 1 0 6.2 0 a3.1 3.1 0 1 0 -6.2 0zM681.43 122.45 a3.1 3.1 0 1 0 6.2 0 a3.1 3.1 0 1 0 -6.2 0zM654.58 137.95 a3.1 3.1 0 1 0 6.2 0 a3.1 3.1 0 1 0 -6.2 0zM627.73 122.45 a3.1 3.1 0 1 0 6.2 0 a3.1 3.1 0 1 0 -6.2 0zM654.58 168.95 a3.1 3.1 0 1 0 6.2 0 a3.1 3.1 0 1 0 -6.2 0zM681.43 184.45 a3.1 3.1 0 1 0 6.2 0 a3.1 3.1 0 1 0 -6.2 0zM681.43 215.45 a3.1 3.1 0 1 0 6.2 0 a3.1 3.1 0 1 0 -6.2 0zM654.58 230.95 a3.1 3.1 0 1 0 6.2 0 a3.1 3.1 0 1 0 -6.2 0zM627.73 215.45 a3.1 3.1 0 1 0 6.2 0 a3.1 3.1 0 1 0 -6.2 0zM627.73 184.45 a3.1 3.1 0 1 0 6.2 0 a3.1 3.1 0 1 0 -6.2 0zM708.28 230.95 a3.1 3.1 0 1 0 6.2 0 a3.1 3.1 0 1 0 -6.2 0zM708.28 261.95 a3.1 3.1 0 1 0 6.2 0 a3.1 3.1 0 1 0 -6.2 0zM681.43 277.45 a3.1 3.1 0 1 0 6.2 0 a3.1 3.1 0 1 0 -6.2 0zM654.58 261.95 a3.1 3.1 0 1 0 6.2 0 a3.1 3.1 0 1 0 -6.2 0zM681.43 308.45 a3.1 3.1 0 1 0 6.2 0 a3.1 3.1 0 1 0 -6.2 0zM654.58 323.95 a3.1 3.1 0 1 0 6.2 0 a3.1 3.1 0 1 0 -6.2 0zM654.58 447.95 a3.1 3.1 0 1 0 6.2 0 a3.1 3.1 0 1 0 -6.2 0zM681.43 463.45 a3.1 3.1 0 1 0 6.2 0 a3.1 3.1 0 1 0 -6.2 0zM681.43 494.45 a3.1 3.1 0 1 0 6.2 0 a3.1 3.1 0 1 0 -6.2 0zM654.58 509.95 a3.1 3.1 0 1 0 6.2 0 a3.1 3.1 0 1 0 -6.2 0zM708.28 75.95 a3.1 3.1 0 1 0 6.2 0 a3.1 3.1 0 1 0 -6.2 0zM735.12 91.45 a3.1 3.1 0 1 0 6.2 0 a3.1 3.1 0 1 0 -6.2 0zM735.12 122.45 a3.1 3.1 0 1 0 6.2 0 a3.1 3.1 0 1 0 -6.2 0zM708.28 137.95 a3.1 3.1 0 1 0 6.2 0 a3.1 3.1 0 1 0 -6.2 0zM735.12 308.45 a3.1 3.1 0 1 0 6.2 0 a3.1 3.1 0 1 0 -6.2 0zM761.97 323.95 a3.1 3.1 0 1 0 6.2 0 a3.1 3.1 0 1 0 -6.2 0zM761.97 354.95 a3.1 3.1 0 1 0 6.2 0 a3.1 3.1 0 1 0 -6.2 0zM735.12 370.45 a3.1 3.1 0 1 0 6.2 0 a3.1 3.1 0 1 0 -6.2 0zM708.28 354.95 a3.1 3.1 0 1 0 6.2 0 a3.1 3.1 0 1 0 -6.2 0zM708.28 323.95 a3.1 3.1 0 1 0 6.2 0 a3.1 3.1 0 1 0 -6.2 0zM735.12 401.45 a3.1 3.1 0 1 0 6.2 0 a3.1 3.1 0 1 0 -6.2 0zM708.28 416.95 a3.1 3.1 0 1 0 6.2 0 a3.1 3.1 0 1 0 -6.2 0zM681.43 401.45 a3.1 3.1 0 1 0 6.2 0 a3.1 3.1 0 1 0 -6.2 0zM681.43 370.45 a3.1 3.1 0 1 0 6.2 0 a3.1 3.1 0 1 0 -6.2 0zM735.12 494.45 a3.1 3.1 0 1 0 6.2 0 a3.1 3.1 0 1 0 -6.2 0zM761.97 509.95 a3.1 3.1 0 1 0 6.2 0 a3.1 3.1 0 1 0 -6.2 0zM761.97 540.95 a3.1 3.1 0 1 0 6.2 0 a3.1 3.1 0 1 0 -6.2 0zM735.12 556.45 a3.1 3.1 0 1 0 6.2 0 a3.1 3.1 0 1 0 -6.2 0zM708.28 540.95 a3.1 3.1 0 1 0 6.2 0 a3.1 3.1 0 1 0 -6.2 0zM708.28 509.95 a3.1 3.1 0 1 0 6.2 0 a3.1 3.1 0 1 0 -6.2 0zM761.97 -17.05 a3.1 3.1 0 1 0 6.2 0 a3.1 3.1 0 1 0 -6.2 0zM788.82 -1.55 a3.1 3.1 0 1 0 6.2 0 a3.1 3.1 0 1 0 -6.2 0zM788.82 29.45 a3.1 3.1 0 1 0 6.2 0 a3.1 3.1 0 1 0 -6.2 0zM761.97 44.95 a3.1 3.1 0 1 0 6.2 0 a3.1 3.1 0 1 0 -6.2 0zM735.12 29.45 a3.1 3.1 0 1 0 6.2 0 a3.1 3.1 0 1 0 -6.2 0zM735.12 -1.55 a3.1 3.1 0 1 0 6.2 0 a3.1 3.1 0 1 0 -6.2 0zM788.82 122.45 a3.1 3.1 0 1 0 6.2 0 a3.1 3.1 0 1 0 -6.2 0zM815.67 137.95 a3.1 3.1 0 1 0 6.2 0 a3.1 3.1 0 1 0 -6.2 0zM815.67 168.95 a3.1 3.1 0 1 0 6.2 0 a3.1 3.1 0 1 0 -6.2 0zM788.82 184.45 a3.1 3.1 0 1 0 6.2 0 a3.1 3.1 0 1 0 -6.2 0zM761.97 168.95 a3.1 3.1 0 1 0 6.2 0 a3.1 3.1 0 1 0 -6.2 0zM761.97 137.95 a3.1 3.1 0 1 0 6.2 0 a3.1 3.1 0 1 0 -6.2 0zM788.82 215.45 a3.1 3.1 0 1 0 6.2 0 a3.1 3.1 0 1 0 -6.2 0zM761.97 230.95 a3.1 3.1 0 1 0 6.2 0 a3.1 3.1 0 1 0 -6.2 0zM735.12 215.45 a3.1 3.1 0 1 0 6.2 0 a3.1 3.1 0 1 0 -6.2 0zM735.12 184.45 a3.1 3.1 0 1 0 6.2 0 a3.1 3.1 0 1 0 -6.2 0zM761.97 261.95 a3.1 3.1 0 1 0 6.2 0 a3.1 3.1 0 1 0 -6.2 0zM788.82 277.45 a3.1 3.1 0 1 0 6.2 0 a3.1 3.1 0 1 0 -6.2 0zM788.82 308.45 a3.1 3.1 0 1 0 6.2 0 a3.1 3.1 0 1 0 -6.2 0zM735.12 277.45 a3.1 3.1 0 1 0 6.2 0 a3.1 3.1 0 1 0 -6.2 0zM815.67 -17.05 a3.1 3.1 0 1 0 6.2 0 a3.1 3.1 0 1 0 -6.2 0zM842.51 -1.55 a3.1 3.1 0 1 0 6.2 0 a3.1 3.1 0 1 0 -6.2 0zM842.51 29.45 a3.1 3.1 0 1 0 6.2 0 a3.1 3.1 0 1 0 -6.2 0zM815.67 44.95 a3.1 3.1 0 1 0 6.2 0 a3.1 3.1 0 1 0 -6.2 0zM842.51 122.45 a3.1 3.1 0 1 0 6.2 0 a3.1 3.1 0 1 0 -6.2 0zM869.36 137.95 a3.1 3.1 0 1 0 6.2 0 a3.1 3.1 0 1 0 -6.2 0zM869.36 168.95 a3.1 3.1 0 1 0 6.2 0 a3.1 3.1 0 1 0 -6.2 0zM842.51 184.45 a3.1 3.1 0 1 0 6.2 0 a3.1 3.1 0 1 0 -6.2 0zM842.51 215.45 a3.1 3.1 0 1 0 6.2 0 a3.1 3.1 0 1 0 -6.2 0zM815.67 230.95 a3.1 3.1 0 1 0 6.2 0 a3.1 3.1 0 1 0 -6.2 0zM815.67 261.95 a3.1 3.1 0 1 0 6.2 0 a3.1 3.1 0 1 0 -6.2 0zM842.51 277.45 a3.1 3.1 0 1 0 6.2 0 a3.1 3.1 0 1 0 -6.2 0zM842.51 308.45 a3.1 3.1 0 1 0 6.2 0 a3.1 3.1 0 1 0 -6.2 0zM815.67 323.95 a3.1 3.1 0 1 0 6.2 0 a3.1 3.1 0 1 0 -6.2 0zM869.36 323.95 a3.1 3.1 0 1 0 6.2 0 a3.1 3.1 0 1 0 -6.2 0zM869.36 354.95 a3.1 3.1 0 1 0 6.2 0 a3.1 3.1 0 1 0 -6.2 0zM842.51 370.45 a3.1 3.1 0 1 0 6.2 0 a3.1 3.1 0 1 0 -6.2 0zM815.67 354.95 a3.1 3.1 0 1 0 6.2 0 a3.1 3.1 0 1 0 -6.2 0zM842.51 401.45 a3.1 3.1 0 1 0 6.2 0 a3.1 3.1 0 1 0 -6.2 0zM869.36 416.95 a3.1 3.1 0 1 0 6.2 0 a3.1 3.1 0 1 0 -6.2 0zM869.36 447.95 a3.1 3.1 0 1 0 6.2 0 a3.1 3.1 0 1 0 -6.2 0zM842.51 463.45 a3.1 3.1 0 1 0 6.2 0 a3.1 3.1 0 1 0 -6.2 0zM815.67 447.95 a3.1 3.1 0 1 0 6.2 0 a3.1 3.1 0 1 0 -6.2 0zM815.67 416.95 a3.1 3.1 0 1 0 6.2 0 a3.1 3.1 0 1 0 -6.2 0zM815.67 540.95 a3.1 3.1 0 1 0 6.2 0 a3.1 3.1 0 1 0 -6.2 0zM842.51 556.45 a3.1 3.1 0 1 0 6.2 0 a3.1 3.1 0 1 0 -6.2 0zM842.51 587.45 a3.1 3.1 0 1 0 6.2 0 a3.1 3.1 0 1 0 -6.2 0zM815.67 602.95 a3.1 3.1 0 1 0 6.2 0 a3.1 3.1 0 1 0 -6.2 0zM788.82 587.45 a3.1 3.1 0 1 0 6.2 0 a3.1 3.1 0 1 0 -6.2 0zM788.82 556.45 a3.1 3.1 0 1 0 6.2 0 a3.1 3.1 0 1 0 -6.2 0zM869.36 -17.05 a3.1 3.1 0 1 0 6.2 0 a3.1 3.1 0 1 0 -6.2 0zM896.21 -1.55 a3.1 3.1 0 1 0 6.2 0 a3.1 3.1 0 1 0 -6.2 0zM896.21 29.45 a3.1 3.1 0 1 0 6.2 0 a3.1 3.1 0 1 0 -6.2 0zM869.36 44.95 a3.1 3.1 0 1 0 6.2 0 a3.1 3.1 0 1 0 -6.2 0zM869.36 75.95 a3.1 3.1 0 1 0 6.2 0 a3.1 3.1 0 1 0 -6.2 0zM896.21 91.45 a3.1 3.1 0 1 0 6.2 0 a3.1 3.1 0 1 0 -6.2 0zM896.21 122.45 a3.1 3.1 0 1 0 6.2 0 a3.1 3.1 0 1 0 -6.2 0zM842.51 91.45 a3.1 3.1 0 1 0 6.2 0 a3.1 3.1 0 1 0 -6.2 0zM923.06 137.95 a3.1 3.1 0 1 0 6.2 0 a3.1 3.1 0 1 0 -6.2 0zM923.06 168.95 a3.1 3.1 0 1 0 6.2 0 a3.1 3.1 0 1 0 -6.2 0zM896.21 184.45 a3.1 3.1 0 1 0 6.2 0 a3.1 3.1 0 1 0 -6.2 0zM896.21 494.45 a3.1 3.1 0 1 0 6.2 0 a3.1 3.1 0 1 0 -6.2 0zM923.06 509.95 a3.1 3.1 0 1 0 6.2 0 a3.1 3.1 0 1 0 -6.2 0zM923.06 540.95 a3.1 3.1 0 1 0 6.2 0 a3.1 3.1 0 1 0 -6.2 0zM896.21 556.45 a3.1 3.1 0 1 0 6.2 0 a3.1 3.1 0 1 0 -6.2 0zM869.36 540.95 a3.1 3.1 0 1 0 6.2 0 a3.1 3.1 0 1 0 -6.2 0zM869.36 509.95 a3.1 3.1 0 1 0 6.2 0 a3.1 3.1 0 1 0 -6.2 0zM949.9 184.45 a3.1 3.1 0 1 0 6.2 0 a3.1 3.1 0 1 0 -6.2 0zM949.9 215.45 a3.1 3.1 0 1 0 6.2 0 a3.1 3.1 0 1 0 -6.2 0zM923.06 230.95 a3.1 3.1 0 1 0 6.2 0 a3.1 3.1 0 1 0 -6.2 0zM896.21 215.45 a3.1 3.1 0 1 0 6.2 0 a3.1 3.1 0 1 0 -6.2 0zM976.75 230.95 a3.1 3.1 0 1 0 6.2 0 a3.1 3.1 0 1 0 -6.2 0zM976.75 261.95 a3.1 3.1 0 1 0 6.2 0 a3.1 3.1 0 1 0 -6.2 0zM949.9 277.45 a3.1 3.1 0 1 0 6.2 0 a3.1 3.1 0 1 0 -6.2 0zM923.06 261.95 a3.1 3.1 0 1 0 6.2 0 a3.1 3.1 0 1 0 -6.2 0zM949.9 308.45 a3.1 3.1 0 1 0 6.2 0 a3.1 3.1 0 1 0 -6.2 0zM976.75 323.95 a3.1 3.1 0 1 0 6.2 0 a3.1 3.1 0 1 0 -6.2 0zM976.75 354.95 a3.1 3.1 0 1 0 6.2 0 a3.1 3.1 0 1 0 -6.2 0zM949.9 370.45 a3.1 3.1 0 1 0 6.2 0 a3.1 3.1 0 1 0 -6.2 0zM923.06 354.95 a3.1 3.1 0 1 0 6.2 0 a3.1 3.1 0 1 0 -6.2 0zM923.06 323.95 a3.1 3.1 0 1 0 6.2 0 a3.1 3.1 0 1 0 -6.2 0zM949.9 556.45 a3.1 3.1 0 1 0 6.2 0 a3.1 3.1 0 1 0 -6.2 0zM949.9 587.45 a3.1 3.1 0 1 0 6.2 0 a3.1 3.1 0 1 0 -6.2 0zM923.06 602.95 a3.1 3.1 0 1 0 6.2 0 a3.1 3.1 0 1 0 -6.2 0zM896.21 587.45 a3.1 3.1 0 1 0 6.2 0 a3.1 3.1 0 1 0 -6.2 0zM1003.6 29.45 a3.1 3.1 0 1 0 6.2 0 a3.1 3.1 0 1 0 -6.2 0zM1030.45 44.95 a3.1 3.1 0 1 0 6.2 0 a3.1 3.1 0 1 0 -6.2 0zM1030.45 75.95 a3.1 3.1 0 1 0 6.2 0 a3.1 3.1 0 1 0 -6.2 0zM1003.6 91.45 a3.1 3.1 0 1 0 6.2 0 a3.1 3.1 0 1 0 -6.2 0zM976.75 75.95 a3.1 3.1 0 1 0 6.2 0 a3.1 3.1 0 1 0 -6.2 0zM976.75 44.95 a3.1 3.1 0 1 0 6.2 0 a3.1 3.1 0 1 0 -6.2 0zM1003.6 277.45 a3.1 3.1 0 1 0 6.2 0 a3.1 3.1 0 1 0 -6.2 0zM1003.6 308.45 a3.1 3.1 0 1 0 6.2 0 a3.1 3.1 0 1 0 -6.2 0zM1030.45 323.95 a3.1 3.1 0 1 0 6.2 0 a3.1 3.1 0 1 0 -6.2 0zM1030.45 354.95 a3.1 3.1 0 1 0 6.2 0 a3.1 3.1 0 1 0 -6.2 0zM1003.6 370.45 a3.1 3.1 0 1 0 6.2 0 a3.1 3.1 0 1 0 -6.2 0zM1030.45 -17.05 a3.1 3.1 0 1 0 6.2 0 a3.1 3.1 0 1 0 -6.2 0zM1057.29 -1.55 a3.1 3.1 0 1 0 6.2 0 a3.1 3.1 0 1 0 -6.2 0zM1057.29 29.45 a3.1 3.1 0 1 0 6.2 0 a3.1 3.1 0 1 0 -6.2 0zM1003.6 -1.55 a3.1 3.1 0 1 0 6.2 0 a3.1 3.1 0 1 0 -6.2 0zM1084.14 44.95 a3.1 3.1 0 1 0 6.2 0 a3.1 3.1 0 1 0 -6.2 0zM1084.14 75.95 a3.1 3.1 0 1 0 6.2 0 a3.1 3.1 0 1 0 -6.2 0zM1057.29 91.45 a3.1 3.1 0 1 0 6.2 0 a3.1 3.1 0 1 0 -6.2 0zM1030.45 168.95 a3.1 3.1 0 1 0 6.2 0 a3.1 3.1 0 1 0 -6.2 0zM1057.29 184.45 a3.1 3.1 0 1 0 6.2 0 a3.1 3.1 0 1 0 -6.2 0zM1057.29 215.45 a3.1 3.1 0 1 0 6.2 0 a3.1 3.1 0 1 0 -6.2 0zM1030.45 230.95 a3.1 3.1 0 1 0 6.2 0 a3.1 3.1 0 1 0 -6.2 0zM1003.6 215.45 a3.1 3.1 0 1 0 6.2 0 a3.1 3.1 0 1 0 -6.2 0zM1003.6 184.45 a3.1 3.1 0 1 0 6.2 0 a3.1 3.1 0 1 0 -6.2 0zM1084.14 230.95 a3.1 3.1 0 1 0 6.2 0 a3.1 3.1 0 1 0 -6.2 0zM1084.14 261.95 a3.1 3.1 0 1 0 6.2 0 a3.1 3.1 0 1 0 -6.2 0zM1057.29 277.45 a3.1 3.1 0 1 0 6.2 0 a3.1 3.1 0 1 0 -6.2 0zM1030.45 261.95 a3.1 3.1 0 1 0 6.2 0 a3.1 3.1 0 1 0 -6.2 0zM1057.29 308.45 a3.1 3.1 0 1 0 6.2 0 a3.1 3.1 0 1 0 -6.2 0zM1084.14 323.95 a3.1 3.1 0 1 0 6.2 0 a3.1 3.1 0 1 0 -6.2 0zM1084.14 354.95 a3.1 3.1 0 1 0 6.2 0 a3.1 3.1 0 1 0 -6.2 0zM1057.29 370.45 a3.1 3.1 0 1 0 6.2 0 a3.1 3.1 0 1 0 -6.2 0zM1057.29 401.45 a3.1 3.1 0 1 0 6.2 0 a3.1 3.1 0 1 0 -6.2 0zM1084.14 416.95 a3.1 3.1 0 1 0 6.2 0 a3.1 3.1 0 1 0 -6.2 0zM1084.14 447.95 a3.1 3.1 0 1 0 6.2 0 a3.1 3.1 0 1 0 -6.2 0zM1057.29 463.45 a3.1 3.1 0 1 0 6.2 0 a3.1 3.1 0 1 0 -6.2 0zM1030.45 447.95 a3.1 3.1 0 1 0 6.2 0 a3.1 3.1 0 1 0 -6.2 0zM1030.45 416.95 a3.1 3.1 0 1 0 6.2 0 a3.1 3.1 0 1 0 -6.2 0zM1110.99 29.45 a3.1 3.1 0 1 0 6.2 0 a3.1 3.1 0 1 0 -6.2 0zM1137.84 44.95 a3.1 3.1 0 1 0 6.2 0 a3.1 3.1 0 1 0 -6.2 0zM1137.84 75.95 a3.1 3.1 0 1 0 6.2 0 a3.1 3.1 0 1 0 -6.2 0zM1110.99 91.45 a3.1 3.1 0 1 0 6.2 0 a3.1 3.1 0 1 0 -6.2 0zM1110.99 122.45 a3.1 3.1 0 1 0 6.2 0 a3.1 3.1 0 1 0 -6.2 0zM1084.14 137.95 a3.1 3.1 0 1 0 6.2 0 a3.1 3.1 0 1 0 -6.2 0zM1057.29 122.45 a3.1 3.1 0 1 0 6.2 0 a3.1 3.1 0 1 0 -6.2 0zM1137.84 137.95 a3.1 3.1 0 1 0 6.2 0 a3.1 3.1 0 1 0 -6.2 0zM1137.84 168.95 a3.1 3.1 0 1 0 6.2 0 a3.1 3.1 0 1 0 -6.2 0zM1110.99 184.45 a3.1 3.1 0 1 0 6.2 0 a3.1 3.1 0 1 0 -6.2 0zM1084.14 168.95 a3.1 3.1 0 1 0 6.2 0 a3.1 3.1 0 1 0 -6.2 0zM1110.99 308.45 a3.1 3.1 0 1 0 6.2 0 a3.1 3.1 0 1 0 -6.2 0zM1137.84 323.95 a3.1 3.1 0 1 0 6.2 0 a3.1 3.1 0 1 0 -6.2 0zM1137.84 354.95 a3.1 3.1 0 1 0 6.2 0 a3.1 3.1 0 1 0 -6.2 0zM1110.99 370.45 a3.1 3.1 0 1 0 6.2 0 a3.1 3.1 0 1 0 -6.2 0zM1110.99 401.45 a3.1 3.1 0 1 0 6.2 0 a3.1 3.1 0 1 0 -6.2 0zM1110.99 463.45 a3.1 3.1 0 1 0 6.2 0 a3.1 3.1 0 1 0 -6.2 0zM1110.99 494.45 a3.1 3.1 0 1 0 6.2 0 a3.1 3.1 0 1 0 -6.2 0zM1084.14 509.95 a3.1 3.1 0 1 0 6.2 0 a3.1 3.1 0 1 0 -6.2 0zM1057.29 494.45 a3.1 3.1 0 1 0 6.2 0 a3.1 3.1 0 1 0 -6.2 0zM1084.14 540.95 a3.1 3.1 0 1 0 6.2 0 a3.1 3.1 0 1 0 -6.2 0zM1110.99 556.45 a3.1 3.1 0 1 0 6.2 0 a3.1 3.1 0 1 0 -6.2 0zM1110.99 587.45 a3.1 3.1 0 1 0 6.2 0 a3.1 3.1 0 1 0 -6.2 0zM1084.14 602.95 a3.1 3.1 0 1 0 6.2 0 a3.1 3.1 0 1 0 -6.2 0zM1057.29 587.45 a3.1 3.1 0 1 0 6.2 0 a3.1 3.1 0 1 0 -6.2 0zM1057.29 556.45 a3.1 3.1 0 1 0 6.2 0 a3.1 3.1 0 1 0 -6.2 0zM1164.68 29.45 a3.1 3.1 0 1 0 6.2 0 a3.1 3.1 0 1 0 -6.2 0zM1191.53 44.95 a3.1 3.1 0 1 0 6.2 0 a3.1 3.1 0 1 0 -6.2 0zM1191.53 75.95 a3.1 3.1 0 1 0 6.2 0 a3.1 3.1 0 1 0 -6.2 0zM1164.68 91.45 a3.1 3.1 0 1 0 6.2 0 a3.1 3.1 0 1 0 -6.2 0zM1164.68 122.45 a3.1 3.1 0 1 0 6.2 0 a3.1 3.1 0 1 0 -6.2 0zM1191.53 137.95 a3.1 3.1 0 1 0 6.2 0 a3.1 3.1 0 1 0 -6.2 0zM1191.53 168.95 a3.1 3.1 0 1 0 6.2 0 a3.1 3.1 0 1 0 -6.2 0zM1164.68 184.45 a3.1 3.1 0 1 0 6.2 0 a3.1 3.1 0 1 0 -6.2 0zM1164.68 215.45 a3.1 3.1 0 1 0 6.2 0 a3.1 3.1 0 1 0 -6.2 0zM1137.84 230.95 a3.1 3.1 0 1 0 6.2 0 a3.1 3.1 0 1 0 -6.2 0zM1110.99 215.45 a3.1 3.1 0 1 0 6.2 0 a3.1 3.1 0 1 0 -6.2 0zM1137.84 261.95 a3.1 3.1 0 1 0 6.2 0 a3.1 3.1 0 1 0 -6.2 0zM1164.68 277.45 a3.1 3.1 0 1 0 6.2 0 a3.1 3.1 0 1 0 -6.2 0zM1164.68 308.45 a3.1 3.1 0 1 0 6.2 0 a3.1 3.1 0 1 0 -6.2 0zM1110.99 277.45 a3.1 3.1 0 1 0 6.2 0 a3.1 3.1 0 1 0 -6.2 0zM1164.68 494.45 a3.1 3.1 0 1 0 6.2 0 a3.1 3.1 0 1 0 -6.2 0zM1191.53 509.95 a3.1 3.1 0 1 0 6.2 0 a3.1 3.1 0 1 0 -6.2 0zM1191.53 540.95 a3.1 3.1 0 1 0 6.2 0 a3.1 3.1 0 1 0 -6.2 0zM1164.68 556.45 a3.1 3.1 0 1 0 6.2 0 a3.1 3.1 0 1 0 -6.2 0zM1137.84 540.95 a3.1 3.1 0 1 0 6.2 0 a3.1 3.1 0 1 0 -6.2 0zM1137.84 509.95 a3.1 3.1 0 1 0 6.2 0 a3.1 3.1 0 1 0 -6.2 0zM1164.68 587.45 a3.1 3.1 0 1 0 6.2 0 a3.1 3.1 0 1 0 -6.2 0zM1137.84 602.95 a3.1 3.1 0 1 0 6.2 0 a3.1 3.1 0 1 0 -6.2 0zM1191.53 -17.05 a3.1 3.1 0 1 0 6.2 0 a3.1 3.1 0 1 0 -6.2 0zM1218.38 -1.55 a3.1 3.1 0 1 0 6.2 0 a3.1 3.1 0 1 0 -6.2 0zM1218.38 29.45 a3.1 3.1 0 1 0 6.2 0 a3.1 3.1 0 1 0 -6.2 0zM1164.68 -1.55 a3.1 3.1 0 1 0 6.2 0 a3.1 3.1 0 1 0 -6.2 0zM1218.38 494.45 a3.1 3.1 0 1 0 6.2 0 a3.1 3.1 0 1 0 -6.2 0zM1245.23 509.95 a3.1 3.1 0 1 0 6.2 0 a3.1 3.1 0 1 0 -6.2 0zM1245.23 540.95 a3.1 3.1 0 1 0 6.2 0 a3.1 3.1 0 1 0 -6.2 0zM1218.38 556.45 a3.1 3.1 0 1 0 6.2 0 a3.1 3.1 0 1 0 -6.2 0zM1272.07 29.45 a3.1 3.1 0 1 0 6.2 0 a3.1 3.1 0 1 0 -6.2 0zM1298.92 44.95 a3.1 3.1 0 1 0 6.2 0 a3.1 3.1 0 1 0 -6.2 0zM1298.92 75.95 a3.1 3.1 0 1 0 6.2 0 a3.1 3.1 0 1 0 -6.2 0zM1272.07 91.45 a3.1 3.1 0 1 0 6.2 0 a3.1 3.1 0 1 0 -6.2 0zM1245.23 75.95 a3.1 3.1 0 1 0 6.2 0 a3.1 3.1 0 1 0 -6.2 0zM1245.23 44.95 a3.1 3.1 0 1 0 6.2 0 a3.1 3.1 0 1 0 -6.2 0zM1272.07 122.45 a3.1 3.1 0 1 0 6.2 0 a3.1 3.1 0 1 0 -6.2 0zM1245.23 137.95 a3.1 3.1 0 1 0 6.2 0 a3.1 3.1 0 1 0 -6.2 0zM1218.38 122.45 a3.1 3.1 0 1 0 6.2 0 a3.1 3.1 0 1 0 -6.2 0zM1218.38 91.45 a3.1 3.1 0 1 0 6.2 0 a3.1 3.1 0 1 0 -6.2 0zM1245.23 168.95 a3.1 3.1 0 1 0 6.2 0 a3.1 3.1 0 1 0 -6.2 0zM1272.07 184.45 a3.1 3.1 0 1 0 6.2 0 a3.1 3.1 0 1 0 -6.2 0zM1272.07 215.45 a3.1 3.1 0 1 0 6.2 0 a3.1 3.1 0 1 0 -6.2 0zM1245.23 230.95 a3.1 3.1 0 1 0 6.2 0 a3.1 3.1 0 1 0 -6.2 0zM1218.38 215.45 a3.1 3.1 0 1 0 6.2 0 a3.1 3.1 0 1 0 -6.2 0zM1218.38 184.45 a3.1 3.1 0 1 0 6.2 0 a3.1 3.1 0 1 0 -6.2 0zM1272.07 401.45 a3.1 3.1 0 1 0 6.2 0 a3.1 3.1 0 1 0 -6.2 0zM1298.92 416.95 a3.1 3.1 0 1 0 6.2 0 a3.1 3.1 0 1 0 -6.2 0zM1298.92 447.95 a3.1 3.1 0 1 0 6.2 0 a3.1 3.1 0 1 0 -6.2 0zM1272.07 463.45 a3.1 3.1 0 1 0 6.2 0 a3.1 3.1 0 1 0 -6.2 0zM1245.23 447.95 a3.1 3.1 0 1 0 6.2 0 a3.1 3.1 0 1 0 -6.2 0zM1245.23 416.95 a3.1 3.1 0 1 0 6.2 0 a3.1 3.1 0 1 0 -6.2 0zM1272.07 556.45 a3.1 3.1 0 1 0 6.2 0 a3.1 3.1 0 1 0 -6.2 0zM1272.07 587.45 a3.1 3.1 0 1 0 6.2 0 a3.1 3.1 0 1 0 -6.2 0zM1245.23 602.95 a3.1 3.1 0 1 0 6.2 0 a3.1 3.1 0 1 0 -6.2 0zM1218.38 587.45 a3.1 3.1 0 1 0 6.2 0 a3.1 3.1 0 1 0 -6.2 0zM1325.77 122.45 a3.1 3.1 0 1 0 6.2 0 a3.1 3.1 0 1 0 -6.2 0zM1352.62 137.95 a3.1 3.1 0 1 0 6.2 0 a3.1 3.1 0 1 0 -6.2 0zM1352.62 168.95 a3.1 3.1 0 1 0 6.2 0 a3.1 3.1 0 1 0 -6.2 0zM1325.77 184.45 a3.1 3.1 0 1 0 6.2 0 a3.1 3.1 0 1 0 -6.2 0zM1298.92 168.95 a3.1 3.1 0 1 0 6.2 0 a3.1 3.1 0 1 0 -6.2 0zM1298.92 137.95 a3.1 3.1 0 1 0 6.2 0 a3.1 3.1 0 1 0 -6.2 0zM1325.77 215.45 a3.1 3.1 0 1 0 6.2 0 a3.1 3.1 0 1 0 -6.2 0zM1352.62 230.95 a3.1 3.1 0 1 0 6.2 0 a3.1 3.1 0 1 0 -6.2 0zM1352.62 261.95 a3.1 3.1 0 1 0 6.2 0 a3.1 3.1 0 1 0 -6.2 0zM1325.77 277.45 a3.1 3.1 0 1 0 6.2 0 a3.1 3.1 0 1 0 -6.2 0zM1298.92 261.95 a3.1 3.1 0 1 0 6.2 0 a3.1 3.1 0 1 0 -6.2 0zM1298.92 230.95 a3.1 3.1 0 1 0 6.2 0 a3.1 3.1 0 1 0 -6.2 0zM1325.77 308.45 a3.1 3.1 0 1 0 6.2 0 a3.1 3.1 0 1 0 -6.2 0zM1352.62 323.95 a3.1 3.1 0 1 0 6.2 0 a3.1 3.1 0 1 0 -6.2 0zM1352.62 354.95 a3.1 3.1 0 1 0 6.2 0 a3.1 3.1 0 1 0 -6.2 0zM1325.77 370.45 a3.1 3.1 0 1 0 6.2 0 a3.1 3.1 0 1 0 -6.2 0zM1298.92 354.95 a3.1 3.1 0 1 0 6.2 0 a3.1 3.1 0 1 0 -6.2 0zM1298.92 323.95 a3.1 3.1 0 1 0 6.2 0 a3.1 3.1 0 1 0 -6.2 0zM1325.77 401.45 a3.1 3.1 0 1 0 6.2 0 a3.1 3.1 0 1 0 -6.2 0zM1272.07 370.45 a3.1 3.1 0 1 0 6.2 0 a3.1 3.1 0 1 0 -6.2 0zM1352.62 416.95 a3.1 3.1 0 1 0 6.2 0 a3.1 3.1 0 1 0 -6.2 0zM1352.62 447.95 a3.1 3.1 0 1 0 6.2 0 a3.1 3.1 0 1 0 -6.2 0zM1325.77 463.45 a3.1 3.1 0 1 0 6.2 0 a3.1 3.1 0 1 0 -6.2 0zM1379.47 29.45 a3.1 3.1 0 1 0 6.2 0 a3.1 3.1 0 1 0 -6.2 0zM1406.31 44.95 a3.1 3.1 0 1 0 6.2 0 a3.1 3.1 0 1 0 -6.2 0zM1406.31 75.95 a3.1 3.1 0 1 0 6.2 0 a3.1 3.1 0 1 0 -6.2 0zM1379.47 91.45 a3.1 3.1 0 1 0 6.2 0 a3.1 3.1 0 1 0 -6.2 0zM1352.62 75.95 a3.1 3.1 0 1 0 6.2 0 a3.1 3.1 0 1 0 -6.2 0zM1352.62 44.95 a3.1 3.1 0 1 0 6.2 0 a3.1 3.1 0 1 0 -6.2 0zM1379.47 122.45 a3.1 3.1 0 1 0 6.2 0 a3.1 3.1 0 1 0 -6.2 0zM1325.77 91.45 a3.1 3.1 0 1 0 6.2 0 a3.1 3.1 0 1 0 -6.2 0zM1379.47 277.45 a3.1 3.1 0 1 0 6.2 0 a3.1 3.1 0 1 0 -6.2 0zM1379.47 308.45 a3.1 3.1 0 1 0 6.2 0 a3.1 3.1 0 1 0 -6.2 0zM1406.31 323.95 a3.1 3.1 0 1 0 6.2 0 a3.1 3.1 0 1 0 -6.2 0zM1406.31 354.95 a3.1 3.1 0 1 0 6.2 0 a3.1 3.1 0 1 0 -6.2 0zM1379.47 370.45 a3.1 3.1 0 1 0 6.2 0 a3.1 3.1 0 1 0 -6.2 0zM1379.47 401.45 a3.1 3.1 0 1 0 6.2 0 a3.1 3.1 0 1 0 -6.2 0zM1379.47 494.45 a3.1 3.1 0 1 0 6.2 0 a3.1 3.1 0 1 0 -6.2 0zM1406.31 509.95 a3.1 3.1 0 1 0 6.2 0 a3.1 3.1 0 1 0 -6.2 0zM1406.31 540.95 a3.1 3.1 0 1 0 6.2 0 a3.1 3.1 0 1 0 -6.2 0zM1379.47 556.45 a3.1 3.1 0 1 0 6.2 0 a3.1 3.1 0 1 0 -6.2 0zM1352.62 540.95 a3.1 3.1 0 1 0 6.2 0 a3.1 3.1 0 1 0 -6.2 0zM1352.62 509.95 a3.1 3.1 0 1 0 6.2 0 a3.1 3.1 0 1 0 -6.2 0zM1406.31 -17.05 a3.1 3.1 0 1 0 6.2 0 a3.1 3.1 0 1 0 -6.2 0zM1433.16 -1.55 a3.1 3.1 0 1 0 6.2 0 a3.1 3.1 0 1 0 -6.2 0zM1433.16 29.45 a3.1 3.1 0 1 0 6.2 0 a3.1 3.1 0 1 0 -6.2 0zM1379.47 -1.55 a3.1 3.1 0 1 0 6.2 0 a3.1 3.1 0 1 0 -6.2 0zM1433.16 91.45 a3.1 3.1 0 1 0 6.2 0 a3.1 3.1 0 1 0 -6.2 0zM1433.16 122.45 a3.1 3.1 0 1 0 6.2 0 a3.1 3.1 0 1 0 -6.2 0zM1406.31 137.95 a3.1 3.1 0 1 0 6.2 0 a3.1 3.1 0 1 0 -6.2 0zM1460.01 137.95 a3.1 3.1 0 1 0 6.2 0 a3.1 3.1 0 1 0 -6.2 0zM1460.01 168.95 a3.1 3.1 0 1 0 6.2 0 a3.1 3.1 0 1 0 -6.2 0zM1433.16 184.45 a3.1 3.1 0 1 0 6.2 0 a3.1 3.1 0 1 0 -6.2 0zM1406.31 168.95 a3.1 3.1 0 1 0 6.2 0 a3.1 3.1 0 1 0 -6.2 0zM1433.16 215.45 a3.1 3.1 0 1 0 6.2 0 a3.1 3.1 0 1 0 -6.2 0zM1406.31 230.95 a3.1 3.1 0 1 0 6.2 0 a3.1 3.1 0 1 0 -6.2 0zM1379.47 215.45 a3.1 3.1 0 1 0 6.2 0 a3.1 3.1 0 1 0 -6.2 0zM1379.47 184.45 a3.1 3.1 0 1 0 6.2 0 a3.1 3.1 0 1 0 -6.2 0zM1433.16 401.45 a3.1 3.1 0 1 0 6.2 0 a3.1 3.1 0 1 0 -6.2 0zM1460.01 416.95 a3.1 3.1 0 1 0 6.2 0 a3.1 3.1 0 1 0 -6.2 0zM1460.01 447.95 a3.1 3.1 0 1 0 6.2 0 a3.1 3.1 0 1 0 -6.2 0zM1433.16 463.45 a3.1 3.1 0 1 0 6.2 0 a3.1 3.1 0 1 0 -6.2 0zM1406.31 447.95 a3.1 3.1 0 1 0 6.2 0 a3.1 3.1 0 1 0 -6.2 0zM1406.31 416.95 a3.1 3.1 0 1 0 6.2 0 a3.1 3.1 0 1 0 -6.2 0zM1433.16 556.45 a3.1 3.1 0 1 0 6.2 0 a3.1 3.1 0 1 0 -6.2 0zM1433.16 587.45 a3.1 3.1 0 1 0 6.2 0 a3.1 3.1 0 1 0 -6.2 0zM1406.31 602.95 a3.1 3.1 0 1 0 6.2 0 a3.1 3.1 0 1 0 -6.2 0zM1379.47 587.45 a3.1 3.1 0 1 0 6.2 0 a3.1 3.1 0 1 0 -6.2 0z" fill="rgba(25, 28, 40, 1)"></path><path d="M6.23 80.99L35.68 97.99L35.68 131.99L6.23 148.99L-23.22 131.99L-23.22 97.99zM35.68 131.99L65.12 148.99L65.12 182.99L35.68 199.99L6.23 182.99L6.23 148.99zM35.68 335.99L65.12 352.99L65.12 386.99L35.68 403.99L6.23 386.99L6.23 352.99zM65.12 182.99L94.57 199.99L94.57 233.99L65.12 250.99L35.68 233.99L35.68 199.99zM65.12 386.99L94.57 403.99L94.57 437.99L65.12 454.99L35.68 437.99L35.68 403.99zM153.46 29.99L182.9 46.99L182.9 80.99L153.46 97.99L124.01 80.99L124.01 46.99zM124.01 80.99L153.46 97.99L153.46 131.99L124.01 148.99L94.57 131.99L94.57 97.99zM124.01 182.99L153.46 199.99L153.46 233.99L124.01 250.99L94.57 233.99L94.57 199.99zM212.35 29.99L241.8 46.99L241.8 80.99L212.35 97.99L182.9 80.99L182.9 46.99zM212.35 539.99L241.8 556.99L241.8 590.99L212.35 607.99L182.9 590.99L182.9 556.99zM241.8 -21.01L271.24 -4.01L271.24 29.99L241.8 46.99L212.35 29.99L212.35 -4.01zM271.24 233.99L300.69 250.99L300.69 284.99L271.24 301.99L241.8 284.99L241.8 250.99zM271.24 335.99L300.69 352.99L300.69 386.99L271.24 403.99L241.8 386.99L241.8 352.99zM241.8 386.99L271.24 403.99L271.24 437.99L241.8 454.99L212.35 437.99L212.35 403.99zM271.24 437.99L300.69 454.99L300.69 488.99L271.24 505.99L241.8 488.99L241.8 454.99zM300.69 182.99L330.13 199.99L330.13 233.99L300.69 250.99L271.24 233.99L271.24 199.99zM330.13 233.99L359.58 250.99L359.58 284.99L330.13 301.99L300.69 284.99L300.69 250.99zM330.13 437.99L359.58 454.99L359.58 488.99L330.13 505.99L300.69 488.99L300.69 454.99zM330.13 539.99L359.58 556.99L359.58 590.99L330.13 607.99L300.69 590.99L300.69 556.99zM389.02 29.99L418.47 46.99L418.47 80.99L389.02 97.99L359.58 80.99L359.58 46.99zM359.58 182.99L389.02 199.99L389.02 233.99L359.58 250.99L330.13 233.99L330.13 199.99zM359.58 488.99L389.02 505.99L389.02 539.99L359.58 556.99L330.13 539.99L330.13 505.99zM447.92 233.99L477.36 250.99L477.36 284.99L447.92 301.99L418.47 284.99L418.47 250.99zM477.36 -21.01L506.81 -4.01L506.81 29.99L477.36 46.99L447.92 29.99L447.92 -4.01zM506.81 131.99L536.25 148.99L536.25 182.99L506.81 199.99L477.36 182.99L477.36 148.99zM506.81 233.99L536.25 250.99L536.25 284.99L506.81 301.99L477.36 284.99L477.36 250.99zM477.36 488.99L506.81 505.99L506.81 539.99L477.36 556.99L447.92 539.99L447.92 505.99zM506.81 539.99L536.25 556.99L536.25 590.99L506.81 607.99L477.36 590.99L477.36 556.99zM536.25 80.99L565.7 97.99L565.7 131.99L536.25 148.99L506.81 131.99L506.81 97.99zM565.7 335.99L595.14 352.99L595.14 386.99L565.7 403.99L536.25 386.99L536.25 352.99zM595.14 -21.01L624.59 -4.01L624.59 29.99L595.14 46.99L565.7 29.99L565.7 -4.01zM624.59 539.99L654.04 556.99L654.04 590.99L624.59 607.99L595.14 590.99L595.14 556.99zM654.04 182.99L683.48 199.99L683.48 233.99L654.04 250.99L624.59 233.99L624.59 199.99zM683.48 335.99L712.93 352.99L712.93 386.99L683.48 403.99L654.04 386.99L654.04 352.99zM742.37 335.99L771.82 352.99L771.82 386.99L742.37 403.99L712.93 386.99L712.93 352.99zM712.93 488.99L742.37 505.99L742.37 539.99L712.93 556.99L683.48 539.99L683.48 505.99zM771.82 80.99L801.26 97.99L801.26 131.99L771.82 148.99L742.37 131.99L742.37 97.99zM771.82 182.99L801.26 199.99L801.26 233.99L771.82 250.99L742.37 233.99L742.37 199.99zM771.82 284.99L801.26 301.99L801.26 335.99L771.82 352.99L742.37 335.99L742.37 301.99zM860.16 29.99L889.6 46.99L889.6 80.99L860.16 97.99L830.71 80.99L830.71 46.99zM830.71 80.99L860.16 97.99L860.16 131.99L830.71 148.99L801.26 131.99L801.26 97.99zM830.71 182.99L860.16 199.99L860.16 233.99L830.71 250.99L801.26 233.99L801.26 199.99zM860.16 233.99L889.6 250.99L889.6 284.99L860.16 301.99L830.71 284.99L830.71 250.99zM830.71 284.99L860.16 301.99L860.16 335.99L830.71 352.99L801.26 335.99L801.26 301.99zM860.16 335.99L889.6 352.99L889.6 386.99L860.16 403.99L830.71 386.99L830.71 352.99zM830.71 386.99L860.16 403.99L860.16 437.99L830.71 454.99L801.26 437.99L801.26 403.99zM830.71 488.99L860.16 505.99L860.16 539.99L830.71 556.99L801.26 539.99L801.26 505.99zM889.6 -21.01L919.05 -4.01L919.05 29.99L889.6 46.99L860.16 29.99L860.16 -4.01zM919.05 29.99L948.49 46.99L948.49 80.99L919.05 97.99L889.6 80.99L889.6 46.99zM889.6 80.99L919.05 97.99L919.05 131.99L889.6 148.99L860.16 131.99L860.16 97.99zM889.6 182.99L919.05 199.99L919.05 233.99L889.6 250.99L860.16 233.99L860.16 199.99zM919.05 335.99L948.49 352.99L948.49 386.99L919.05 403.99L889.6 386.99L889.6 352.99zM919.05 539.99L948.49 556.99L948.49 590.99L919.05 607.99L889.6 590.99L889.6 556.99zM948.49 182.99L977.94 199.99L977.94 233.99L948.49 250.99L919.05 233.99L919.05 199.99zM977.94 335.99L1007.38 352.99L1007.38 386.99L977.94 403.99L948.49 386.99L948.49 352.99zM977.94 539.99L1007.38 556.99L1007.38 590.99L977.94 607.99L948.49 590.99L948.49 556.99zM1007.38 182.99L1036.83 199.99L1036.83 233.99L1007.38 250.99L977.94 233.99L977.94 199.99zM1036.83 233.99L1066.28 250.99L1066.28 284.99L1036.83 301.99L1007.38 284.99L1007.38 250.99zM1066.28 -21.01L1095.72 -4.01L1095.72 29.99L1066.28 46.99L1036.83 29.99L1036.83 -4.01zM1066.28 80.99L1095.72 97.99L1095.72 131.99L1066.28 148.99L1036.83 131.99L1036.83 97.99zM1066.28 386.99L1095.72 403.99L1095.72 437.99L1066.28 454.99L1036.83 437.99L1036.83 403.99zM1125.17 -21.01L1154.61 -4.01L1154.61 29.99L1125.17 46.99L1095.72 29.99L1095.72 -4.01zM1154.61 29.99L1184.06 46.99L1184.06 80.99L1154.61 97.99L1125.17 80.99L1125.17 46.99zM1154.61 131.99L1184.06 148.99L1184.06 182.99L1154.61 199.99L1125.17 182.99L1125.17 148.99zM1125.17 182.99L1154.61 199.99L1154.61 233.99L1125.17 250.99L1095.72 233.99L1095.72 199.99zM1154.61 437.99L1184.06 454.99L1184.06 488.99L1154.61 505.99L1125.17 488.99L1125.17 454.99zM1213.5 131.99L1242.95 148.99L1242.95 182.99L1213.5 199.99L1184.06 182.99L1184.06 148.99zM1213.5 233.99L1242.95 250.99L1242.95 284.99L1213.5 301.99L1184.06 284.99L1184.06 250.99zM1242.95 -21.01L1272.4 -4.01L1272.4 29.99L1242.95 46.99L1213.5 29.99L1213.5 -4.01zM1242.95 80.99L1272.4 97.99L1272.4 131.99L1242.95 148.99L1213.5 131.99L1213.5 97.99zM1242.95 182.99L1272.4 199.99L1272.4 233.99L1242.95 250.99L1213.5 233.99L1213.5 199.99zM1272.4 233.99L1301.84 250.99L1301.84 284.99L1272.4 301.99L1242.95 284.99L1242.95 250.99zM1272.4 335.99L1301.84 352.99L1301.84 386.99L1272.4 403.99L1242.95 386.99L1242.95 352.99zM1272.4 437.99L1301.84 454.99L1301.84 488.99L1272.4 505.99L1242.95 488.99L1242.95 454.99zM1242.95 488.99L1272.4 505.99L1272.4 539.99L1242.95 556.99L1213.5 539.99L1213.5 505.99zM1301.84 -21.01L1331.29 -4.01L1331.29 29.99L1301.84 46.99L1272.4 29.99L1272.4 -4.01zM1301.84 80.99L1331.29 97.99L1331.29 131.99L1301.84 148.99L1272.4 131.99L1272.4 97.99zM1301.84 182.99L1331.29 199.99L1331.29 233.99L1301.84 250.99L1272.4 233.99L1272.4 199.99zM1331.29 233.99L1360.73 250.99L1360.73 284.99L1331.29 301.99L1301.84 284.99L1301.84 250.99zM1301.84 284.99L1331.29 301.99L1331.29 335.99L1301.84 352.99L1272.4 335.99L1272.4 301.99zM1301.84 386.99L1331.29 403.99L1331.29 437.99L1301.84 454.99L1272.4 437.99L1272.4 403.99zM1301.84 488.99L1331.29 505.99L1331.29 539.99L1301.84 556.99L1272.4 539.99L1272.4 505.99zM1331.29 539.99L1360.73 556.99L1360.73 590.99L1331.29 607.99L1301.84 590.99L1301.84 556.99zM1390.18 29.99L1419.62 46.99L1419.62 80.99L1390.18 97.99L1360.73 80.99L1360.73 46.99zM1390.18 131.99L1419.62 148.99L1419.62 182.99L1390.18 199.99L1360.73 182.99L1360.73 148.99zM1390.18 335.99L1419.62 352.99L1419.62 386.99L1390.18 403.99L1360.73 386.99L1360.73 352.99zM1390.18 437.99L1419.62 454.99L1419.62 488.99L1390.18 505.99L1360.73 488.99L1360.73 454.99zM1419.62 -21.01L1449.07 -4.01L1449.07 29.99L1419.62 46.99L1390.18 29.99L1390.18 -4.01zM1419.62 488.99L1449.07 505.99L1449.07 539.99L1419.62 556.99L1390.18 539.99L1390.18 505.99z" stroke="rgba(35, 38, 53, 1)" stroke-width="2"></path></g><defs><mask id="SvgjsMask1045"><rect width="1440" height="560" fill="#ffffff"></rect></mask></defs></svg>